<svg width="60" height="40" viewBox="0 0 60 40" fill="none" xmlns="http://www.w3.org/2000/svg">
<path fill-rule="evenodd" clip-rule="evenodd" d="M37.2254 15.0508C37.2254 12.1645 39.5025 9.98552 42.3101 9.98552C44.1164 9.98552 45.3337 10.8887 45.9423 11.929H46.0208V6.7656C46.0208 6.31417 46.335 6 46.8061 6C47.2972 6 47.5914 6.31417 47.5914 6.7656V15.0702C47.5914 17.9563 45.2943 20.1158 42.4085 20.1158C39.5422 20.1158 37.2254 17.9366 37.2254 15.0508ZM46.0602 15.0508C46.0602 12.9697 44.4893 11.3992 42.4085 11.3992C40.3272 11.3992 38.7566 12.9697 38.7566 15.0508C38.7566 17.1316 40.3272 18.7025 42.4085 18.7025C44.4893 18.7025 46.0602 17.1316 46.0602 15.0508ZM14.4111 23.3947C13.9988 23.1984 13.8022 22.8448 13.9594 22.4328C14.1166 22.0005 14.5093 21.8241 14.9213 22.0204C15.6284 22.354 16.5116 22.5897 17.4538 22.5897C19.7906 22.5897 21.2039 21.1958 21.2039 18.8202V18.1722H21.1252C20.5165 19.2129 19.2998 20.1157 17.4932 20.1157C14.7053 20.1157 12.4082 17.9562 12.4082 15.0507C12.4082 12.1647 14.725 9.98543 17.5917 9.98543C20.4777 9.98543 22.7748 12.1453 22.7748 15.031V18.7221C22.7748 21.9026 20.7325 24.0425 17.395 24.0425C16.3743 24.0425 15.3533 23.8461 14.4111 23.3947ZM21.243 15.0507C21.243 12.9696 19.6724 11.3988 17.5917 11.3988C15.5106 11.3988 13.94 12.9696 13.94 15.0507C13.94 17.1318 15.5106 18.7024 17.5917 18.7024C19.6724 18.7024 21.243 17.1318 21.243 15.0507ZM5.18314 9.98552C2.31678 9.98552 0 12.1645 0 15.0508C0 17.9563 2.29709 20.1158 5.08469 20.1158C6.89097 20.1158 8.10828 19.2127 8.71694 18.1723H8.79541V19.4681C8.79541 19.9195 9.0899 20.2337 9.5807 20.2337C10.0521 20.2337 10.366 19.9195 10.366 19.4681V15.0311C10.366 12.1451 8.06891 9.98552 5.18314 9.98552ZM5.18314 11.3992C7.26393 11.3992 8.8348 12.9697 8.8348 15.0508C8.8348 17.1316 7.26393 18.7025 5.18314 18.7025C3.10178 18.7025 1.5312 17.1316 1.5312 15.0508C1.5312 12.9697 3.10178 11.3992 5.18314 11.3992ZM0.673151 32.1148C0.673151 29.6602 2.66976 27.6636 5.12436 27.6636C7.57868 27.6636 9.57586 29.6602 9.57586 32.1148C9.57586 34.5691 7.57868 36.566 5.12436 36.566C2.66976 36.566 0.673151 34.5691 0.673151 32.1148ZM13.1121 32.1148C13.1121 29.6602 15.109 27.6636 17.5636 27.6636C20.0182 27.6636 22.0148 29.6602 22.0148 32.1148C22.0148 34.5691 20.0182 36.566 17.5636 36.566C15.109 36.566 13.1121 34.5691 13.1121 32.1148ZM30.0029 27.6636C27.5481 27.6636 25.5514 29.6602 25.5514 32.1148C25.5514 34.5691 27.5481 36.566 30.0029 36.566C32.4573 36.566 34.4542 34.5691 34.4542 32.1148C34.4542 29.6602 32.4573 27.6636 30.0029 27.6636ZM50.4295 32.1148C50.4295 29.6602 52.4261 27.6636 54.8807 27.6636C57.3353 27.6636 59.3319 29.6602 59.3319 32.1148C59.3319 34.5691 57.3353 36.566 54.8807 36.566C52.4261 36.566 50.4295 34.5691 50.4295 32.1148ZM42.442 27.6639C39.9874 27.6639 37.9902 29.6605 37.9902 32.1148C37.9902 34.5694 39.9871 36.5657 42.4417 36.5657C44.8963 36.5657 46.8929 34.5694 46.8929 32.1148C46.8929 29.6605 44.8966 27.6639 42.442 27.6639ZM30.0001 9.98552C27.1141 9.98552 24.8167 12.1645 24.8167 15.0508C24.8167 17.9366 27.1141 20.1158 30.0001 20.1158C32.8859 20.1158 35.183 17.9366 35.183 15.0508C35.183 12.1645 32.8859 9.98552 30.0001 9.98552ZM30.0001 11.3992C32.0809 11.3992 33.6518 12.9697 33.6518 15.0508C33.6518 17.1316 32.0809 18.7025 30.0001 18.7025C27.9188 18.7025 26.3482 17.1316 26.3482 15.0508C26.3482 12.9697 27.9188 11.3992 30.0001 11.3992ZM54.8169 9.98552C51.9505 9.98552 49.6337 12.1645 49.6337 15.0508C49.6337 17.9563 51.9308 20.1158 54.7187 20.1158C56.525 20.1158 57.742 19.2127 58.3507 18.1723H58.4291V19.4681C58.4291 19.9195 58.7236 20.2337 59.2147 20.2337C59.6858 20.2337 60 19.9195 60 19.4681V15.0311C60 12.1451 57.7029 9.98552 54.8169 9.98552ZM54.8169 11.3992C56.8979 11.3992 58.4685 12.9697 58.4685 15.0508C58.4685 17.1316 56.8979 18.7025 54.8169 18.7025C52.7358 18.7025 51.1652 17.1316 51.1652 15.0508C51.1652 12.9697 52.7358 11.3992 54.8169 11.3992Z" fill="#24262C"/>
</svg>
