<svg xmlns="http://www.w3.org/2000/svg" width="60" height="32" viewBox="0 0 60 32" fill="none">
  <path fill-rule="evenodd" clip-rule="evenodd" d="M17.5648 22.6799C15.1102 22.6799 13.1133 24.7702 13.1133 27.34C13.1133 29.9094 15.1102 32 17.5648 32C20.0194 32 22.016 29.9094 22.016 27.34C22.016 24.7702 20.0194 22.6799 17.5648 22.6799Z" fill="#FCB716"/>
  <path fill-rule="evenodd" clip-rule="evenodd" d="M5.12309 22.6799C2.66849 22.6799 0.671875 24.7702 0.671875 27.34C0.671875 29.9094 2.66849 32 5.12309 32C7.5774 32 9.57458 29.9094 9.57458 27.34C9.57458 24.7702 7.5774 22.6799 5.12309 22.6799Z" fill="#EE363F"/>
  <path fill-rule="evenodd" clip-rule="evenodd" d="M30.0023 22.6799C27.5474 22.6799 25.5508 24.7702 25.5508 27.34C25.5508 29.9094 27.5474 32 30.0023 32C32.4566 32 34.4535 29.9094 34.4535 27.34C34.4535 24.7702 32.4566 22.6799 30.0023 22.6799Z" fill="#07AF56"/>
  <path fill-rule="evenodd" clip-rule="evenodd" d="M54.8809 22.6799C52.4263 22.6799 50.4297 24.7702 50.4297 27.34C50.4297 29.9094 52.4263 32 54.8809 32C57.3355 32 59.3321 29.9094 59.3321 27.34C59.3321 24.7702 57.3355 22.6799 54.8809 22.6799Z" fill="#04A9DF"/>
  <path fill-rule="evenodd" clip-rule="evenodd" d="M42.4401 22.6802C39.9855 22.6802 37.9883 24.7705 37.9883 27.3399C37.9883 29.9097 39.9852 31.9997 42.4398 31.9997C44.8944 31.9997 46.891 29.9097 46.891 27.3399C46.891 24.7705 44.8947 22.6802 42.4401 22.6802Z" fill="#A1479A"/>
  <path fill-rule="evenodd" clip-rule="evenodd" d="M0 9.47553C0 6.45378 2.31678 4.17261 5.18314 4.17261C8.06891 4.17261 10.366 6.43347 10.366 9.45492V14.1C10.366 14.5726 10.0521 14.9015 9.5807 14.9015C9.0899 14.9015 8.79541 14.5726 8.79541 14.1V12.7434H8.71694C8.10828 13.8327 6.89097 14.7782 5.08469 14.7782C2.29709 14.7782 0 12.5173 0 9.47553ZM8.83478 9.47554C8.83478 7.29683 7.26392 5.65257 5.18313 5.65257C3.10177 5.65257 1.53119 7.29683 1.53119 9.47554C1.53119 11.6539 3.10177 13.2985 5.18313 13.2985C7.26392 13.2985 8.83478 11.6539 8.83478 9.47554Z" fill="white"/>
  <path fill-rule="evenodd" clip-rule="evenodd" d="M14.413 18.2107C14.0007 18.0052 13.8041 17.6351 13.9613 17.2037C14.1186 16.7511 14.5112 16.5665 14.9233 16.772C15.6304 17.1212 16.5135 17.368 17.4558 17.368C19.7925 17.368 21.2059 15.9086 21.2059 13.4216V12.7432H21.1271C20.5184 13.8327 19.3017 14.7779 17.4951 14.7779C14.7072 14.7779 12.4102 12.5171 12.4102 9.47529C12.4102 6.45384 14.7269 4.17236 17.5936 4.17236C20.4796 4.17236 22.7767 6.43352 22.7767 9.45468V13.3189C22.7767 16.6486 20.7345 18.8889 17.397 18.8889C16.3763 18.8889 15.3553 18.6833 14.413 18.2107ZM21.245 9.47529C21.245 7.29658 19.6744 5.65202 17.5936 5.65202C15.5125 5.65202 13.9419 7.29658 13.9419 9.47529C13.9419 11.654 15.5125 13.2983 17.5936 13.2983C19.6744 13.2983 21.245 11.654 21.245 9.47529Z" fill="white"/>
  <path fill-rule="evenodd" clip-rule="evenodd" d="M24.8164 9.47553C24.8164 6.45378 27.1138 4.17261 29.9998 4.17261C32.8856 4.17261 35.1827 6.45378 35.1827 9.47553C35.1827 12.4967 32.8856 14.7782 29.9998 14.7782C27.1138 14.7782 24.8164 12.4967 24.8164 9.47553ZM33.6515 9.47554C33.6515 7.29683 32.0806 5.65257 29.9998 5.65257C27.9185 5.65257 26.3479 7.29683 26.3479 9.47554C26.3479 11.6539 27.9185 13.2985 29.9998 13.2985C32.0806 13.2985 33.6515 11.6539 33.6515 9.47554Z" fill="white"/>
  <path fill-rule="evenodd" clip-rule="evenodd" d="M37.2266 9.47542C37.2266 6.45367 39.5037 4.1725 42.3113 4.1725C44.1175 4.1725 45.3349 5.11801 45.9435 6.20721H46.022V0.801518C46.022 0.328912 46.3362 0 46.8073 0C47.2984 0 47.5926 0.328912 47.5926 0.801518V9.49574C47.5926 12.5172 45.2955 14.778 42.4097 14.778C39.5433 14.778 37.2266 12.4966 37.2266 9.47542ZM46.0614 9.47542C46.0614 7.29671 44.4905 5.65245 42.4097 5.65245C40.3283 5.65245 38.7578 7.29671 38.7578 9.47542C38.7578 11.6538 40.3283 13.2984 42.4097 13.2984C44.4905 13.2984 46.0614 11.6538 46.0614 9.47542Z" fill="white"/>
  <path fill-rule="evenodd" clip-rule="evenodd" d="M49.6328 9.47553C49.6328 6.45378 51.9496 4.17261 54.816 4.17261C57.702 4.17261 59.9991 6.43347 59.9991 9.45492V14.1C59.9991 14.5726 59.6849 14.9015 59.2138 14.9015C58.7227 14.9015 58.4282 14.5726 58.4282 14.1V12.7434H58.3498C57.7411 13.8327 56.5241 14.7782 54.7178 14.7782C51.9299 14.7782 49.6328 12.5173 49.6328 9.47553ZM58.4676 9.47554C58.4676 7.29683 56.897 5.65257 54.8159 5.65257C52.7349 5.65257 51.1643 7.29683 51.1643 9.47554C51.1643 11.6539 52.7349 13.2985 54.8159 13.2985C56.897 13.2985 58.4676 11.6539 58.4676 9.47554Z" fill="white"/>
</svg>