<svg width="175" height="32" viewBox="0 0 175 32" fill="none" xmlns="http://www.w3.org/2000/svg">
<path d="M37.6035 11.1615C40.3624 11.1615 42.5815 13.3705 42.5815 16.1168C42.5815 18.8631 40.3624 21.072 37.6035 21.072C34.8447 21.072 32.6257 18.8631 32.6257 16.1168C32.6257 13.3705 34.8447 11.1615 37.6035 11.1615ZM37.6035 9.19141C33.7652 9.19141 30.6465 12.2959 30.6465 16.1168C30.6465 19.9377 33.7652 23.0422 37.6035 23.0422C41.4419 23.0422 44.5606 19.9377 44.5606 16.1168C44.5606 12.2959 41.4419 9.19141 37.6035 9.19141Z" fill="#595A5A"/>
<path d="M13.9141 16.1168C13.9141 12.2959 10.7954 9.19141 6.95706 9.19141C3.11867 9.19141 0 12.2959 0 16.1168C0 19.9377 3.11867 23.0422 6.95706 23.0422C8.93623 23.0422 10.6755 22.2064 11.935 20.8929V22.2661C11.935 22.8034 12.3548 23.2213 12.8946 23.2213C13.4344 23.2213 13.8542 22.8034 13.8542 22.2661V16.4153V16.3556C13.9141 16.2362 13.9141 16.1765 13.9141 16.1168ZM6.95706 21.072C4.19822 21.072 1.97912 18.8631 1.97912 16.1168C1.97912 13.3705 4.19822 11.1615 6.95706 11.1615C9.7159 11.1615 11.935 13.3705 11.935 16.1168C11.995 18.8631 9.7159 21.072 6.95706 21.072Z" fill="#595A5A"/>
<path d="M75.1485 16.0571C75.0885 12.2959 72.0298 9.19141 68.1914 9.19141C64.353 9.19141 61.2344 12.2959 61.2344 16.1168C61.2344 19.9377 64.353 23.0422 68.1914 23.0422C70.1706 23.0422 71.9099 22.2064 73.1694 20.8929V22.2661C73.1694 22.8034 73.5892 23.2213 74.129 23.2213C74.6687 23.2213 75.0885 22.8034 75.0885 22.2661V16.1765C75.2085 16.1168 75.1485 16.1168 75.1485 16.0571ZM68.2514 21.072C65.4926 21.072 63.2735 18.8631 63.2735 16.1168C63.2735 13.3705 65.4926 11.1615 68.2514 11.1615C71.0102 11.1615 73.2293 13.3705 73.2293 16.1168C73.2293 18.8631 71.0102 21.072 68.2514 21.072Z" fill="#595A5A"/>
<path d="M59.8542 15.7583C59.8542 15.6986 59.8542 15.6389 59.8542 15.5792V4.05681C59.8542 3.5195 59.4344 3.10156 58.8946 3.10156C58.3548 3.10156 57.935 3.5195 57.935 4.05681V11.4001C56.6755 10.0867 54.8763 9.25085 52.9571 9.25085C49.1187 9.25085 46 12.3553 46 16.1762C46 19.9971 49.1187 23.1016 52.9571 23.1016C56.7955 23.1016 59.9142 19.9971 59.9142 16.1762C59.8542 15.9971 59.8542 15.8777 59.8542 15.7583ZM52.9571 21.0717C50.1982 21.0717 47.9792 18.8628 47.9792 16.1165C47.9792 13.3703 50.1982 11.1613 52.9571 11.1613C55.7159 11.1613 57.935 13.3703 57.935 16.1165C57.935 18.8628 55.7159 21.0717 52.9571 21.0717Z" fill="#595A5A"/>
<path d="M29.2071 16.1168C29.2071 12.2959 26.0884 9.19141 22.25 9.19141C18.4116 9.19141 15.293 12.2959 15.293 16.1168C15.293 19.9377 18.4116 23.0422 22.25 23.0422C24.2292 23.0422 25.9685 22.2063 27.228 20.9526V21.8481C27.228 24.6541 25.0089 26.6243 21.8302 26.6243C20.4508 26.6243 19.3113 26.3258 18.4116 25.669C17.9918 25.3705 17.3921 25.4302 17.0323 25.8481C16.7324 26.2661 16.7923 26.8631 17.2121 27.2213C18.4116 28.1168 19.971 28.5944 21.7702 28.5944C26.0284 28.5944 29.1471 25.7884 29.1471 21.9078V16.475C29.1471 16.475 29.1471 16.475 29.1471 16.4153C29.2071 16.2362 29.2071 16.1765 29.2071 16.1168ZM22.31 21.072C19.5512 21.072 17.3321 18.8631 17.3321 16.1168C17.3321 13.3705 19.5512 11.1615 22.31 11.1615C25.0688 11.1615 27.2879 13.3705 27.2879 16.1168C27.2879 18.8631 25.0688 21.072 22.31 21.072Z" fill="#595A5A"/>
<path d="M171.528 26.2971C170.971 26.2971 170.46 26.2093 169.996 26.0337C169.541 25.8581 169.169 25.6455 168.881 25.396C168.825 25.3497 168.774 25.2943 168.728 25.2296C168.681 25.1649 168.658 25.0863 168.658 24.9939C168.658 24.8645 168.705 24.749 168.798 24.6473C168.9 24.5456 169.011 24.4948 169.132 24.4948C169.253 24.4948 169.406 24.5641 169.592 24.7028C169.833 24.8784 170.116 25.0309 170.442 25.1603C170.776 25.2897 171.157 25.3544 171.584 25.3544C171.881 25.3544 172.165 25.3174 172.434 25.2435C172.703 25.1603 172.922 25.0355 173.089 24.8691C173.265 24.7028 173.354 24.4856 173.354 24.2175C173.354 23.8663 173.214 23.6121 172.936 23.455C172.666 23.2979 172.35 23.1916 171.988 23.1361L170.887 22.9698C170.553 22.9143 170.223 22.8173 169.898 22.6786C169.582 22.54 169.322 22.3413 169.118 22.0825C168.914 21.8237 168.811 21.4956 168.811 21.0982C168.811 20.6545 168.937 20.2848 169.188 19.989C169.448 19.6933 169.787 19.4715 170.205 19.3236C170.623 19.1665 171.064 19.0879 171.528 19.0879C172.03 19.0879 172.48 19.1618 172.88 19.3097C173.279 19.4576 173.614 19.6378 173.883 19.8504C173.976 19.9151 174.046 19.9798 174.092 20.0445C174.138 20.1092 174.162 20.1924 174.162 20.294C174.162 20.4142 174.115 20.5297 174.022 20.6406C173.929 20.7423 173.813 20.7931 173.674 20.7931C173.609 20.7931 173.544 20.7747 173.479 20.7377C173.414 20.7007 173.326 20.6499 173.214 20.5852C172.963 20.4281 172.699 20.2987 172.42 20.197C172.151 20.0861 171.835 20.0306 171.473 20.0306C171.222 20.0306 170.971 20.0676 170.72 20.1415C170.469 20.2062 170.26 20.3125 170.093 20.4604C169.935 20.6083 169.856 20.8024 169.856 21.0427C169.856 21.2553 169.926 21.4309 170.065 21.5695C170.205 21.6989 170.372 21.8006 170.567 21.8745C170.771 21.9392 170.966 21.9854 171.152 22.0132L172.253 22.1795C172.652 22.235 173.01 22.3459 173.326 22.5123C173.651 22.6694 173.911 22.8866 174.106 23.1639C174.301 23.4319 174.398 23.7646 174.398 24.1621C174.398 24.6427 174.259 25.0401 173.98 25.3544C173.711 25.6686 173.358 25.9043 172.922 26.0614C172.485 26.2185 172.021 26.2971 171.528 26.2971Z" fill="#868789"/>
<path d="M164.575 26.2971C164.018 26.2971 163.507 26.2093 163.043 26.0337C162.587 25.8581 162.216 25.6455 161.928 25.396C161.872 25.3497 161.821 25.2943 161.775 25.2296C161.728 25.1649 161.705 25.0863 161.705 24.9939C161.705 24.8645 161.752 24.749 161.844 24.6473C161.947 24.5456 162.058 24.4948 162.179 24.4948C162.3 24.4948 162.453 24.5641 162.639 24.7028C162.88 24.8784 163.163 25.0309 163.488 25.1603C163.823 25.2897 164.204 25.3544 164.631 25.3544C164.928 25.3544 165.211 25.3174 165.481 25.2435C165.75 25.1603 165.968 25.0355 166.136 24.8691C166.312 24.7028 166.4 24.4856 166.4 24.2175C166.4 23.8663 166.261 23.6121 165.982 23.455C165.713 23.2979 165.397 23.1916 165.035 23.1361L163.934 22.9698C163.6 22.9143 163.27 22.8173 162.945 22.6786C162.629 22.54 162.369 22.3413 162.165 22.0825C161.961 21.8237 161.858 21.4956 161.858 21.0982C161.858 20.6545 161.984 20.2848 162.235 19.989C162.495 19.6933 162.834 19.4715 163.252 19.3236C163.67 19.1665 164.111 19.0879 164.575 19.0879C165.077 19.0879 165.527 19.1618 165.927 19.3097C166.326 19.4576 166.66 19.6378 166.93 19.8504C167.023 19.9151 167.092 19.9798 167.139 20.0445C167.185 20.1092 167.208 20.1924 167.208 20.294C167.208 20.4142 167.162 20.5297 167.069 20.6406C166.976 20.7423 166.86 20.7931 166.721 20.7931C166.656 20.7931 166.591 20.7747 166.526 20.7377C166.461 20.7007 166.373 20.6499 166.261 20.5852C166.01 20.4281 165.746 20.2987 165.467 20.197C165.198 20.0861 164.882 20.0306 164.519 20.0306C164.269 20.0306 164.018 20.0676 163.767 20.1415C163.516 20.2062 163.307 20.3125 163.14 20.4604C162.982 20.6083 162.903 20.8024 162.903 21.0427C162.903 21.2553 162.973 21.4309 163.112 21.5695C163.252 21.6989 163.419 21.8006 163.614 21.8745C163.818 21.9392 164.013 21.9854 164.199 22.0132L165.3 22.1795C165.699 22.235 166.057 22.3459 166.373 22.5123C166.698 22.6694 166.958 22.8866 167.153 23.1639C167.348 23.4319 167.445 23.7646 167.445 24.1621C167.445 24.6427 167.306 25.0401 167.027 25.3544C166.758 25.6686 166.405 25.9043 165.968 26.0614C165.532 26.2185 165.068 26.2971 164.575 26.2971Z" fill="#868789"/>
<path d="M157.72 26.2971C157.052 26.2971 156.439 26.1492 155.881 25.8535C155.333 25.5485 154.897 25.1233 154.572 24.578C154.247 24.0327 154.084 23.3996 154.084 22.6786C154.084 21.9577 154.242 21.3292 154.558 20.7931C154.874 20.2571 155.296 19.8412 155.826 19.5454C156.355 19.2404 156.936 19.0879 157.567 19.0879C158.236 19.0879 158.812 19.2404 159.295 19.5454C159.787 19.8504 160.168 20.2432 160.437 20.7238C160.707 21.1952 160.841 21.6943 160.841 22.2211C160.841 22.4984 160.8 22.6971 160.716 22.8173C160.642 22.9374 160.544 23.016 160.423 23.053C160.312 23.0807 160.2 23.0946 160.089 23.0946H155.171C155.264 23.7785 155.547 24.3192 156.021 24.7166C156.494 25.1048 157.066 25.2989 157.734 25.2989C158.124 25.2989 158.468 25.2388 158.765 25.1187C159.063 24.9893 159.355 24.8368 159.643 24.6612C159.717 24.615 159.787 24.578 159.852 24.5503C159.926 24.5133 160.001 24.4948 160.075 24.4948C160.205 24.4948 160.317 24.5503 160.409 24.6612C160.502 24.7628 160.549 24.8784 160.549 25.0078C160.549 25.1741 160.456 25.3266 160.27 25.4653C160.001 25.6686 159.643 25.8581 159.197 26.0337C158.751 26.2093 158.259 26.2971 157.72 26.2971ZM157.553 20.0861C156.922 20.0861 156.388 20.2756 155.951 20.6545C155.524 21.0335 155.264 21.5418 155.171 22.1795H159.796C159.769 21.5788 159.55 21.0797 159.142 20.6822C158.733 20.2848 158.203 20.0861 157.553 20.0861Z" fill="#868789"/>
<path d="M149.902 26.2694C149.559 26.2694 149.387 26.0892 149.387 25.7287V19.6563C149.387 19.2958 149.559 19.1156 149.902 19.1156C150.246 19.1156 150.418 19.2958 150.418 19.6563V20.3772H150.473C150.659 20.026 150.929 19.7256 151.282 19.4761C151.635 19.2173 152.039 19.0879 152.494 19.0879C152.67 19.0879 152.833 19.1064 152.981 19.1433C153.139 19.1803 153.279 19.2312 153.399 19.2958C153.632 19.4068 153.748 19.5639 153.748 19.7672C153.748 19.8874 153.706 20.0121 153.622 20.1415C153.548 20.2709 153.432 20.3356 153.274 20.3356C153.227 20.3356 153.167 20.3264 153.093 20.3079C153.019 20.2802 152.949 20.2571 152.884 20.2386C152.8 20.2109 152.707 20.1878 152.605 20.1693C152.512 20.1508 152.41 20.1415 152.299 20.1415C151.936 20.1415 151.611 20.2478 151.323 20.4604C151.045 20.6638 150.822 20.9457 150.655 21.3061C150.497 21.6666 150.418 22.0779 150.418 22.54V25.7287C150.418 26.0892 150.246 26.2694 149.902 26.2694Z" fill="#868789"/>
<path d="M141.068 29.0422C140.725 29.0422 140.553 28.8619 140.553 28.5015V22.6925C140.553 22.0917 140.66 21.5695 140.873 21.1259C141.087 20.673 141.37 20.2987 141.723 20.0029C142.076 19.6979 142.466 19.4715 142.893 19.3236C143.33 19.1665 143.767 19.0879 144.203 19.0879C144.89 19.0879 145.513 19.245 146.07 19.5593C146.627 19.8735 147.069 20.3033 147.394 20.8486C147.719 21.3847 147.881 21.9993 147.881 22.6925C147.881 23.3765 147.719 23.9911 147.394 24.5364C147.069 25.0817 146.632 25.5115 146.084 25.8257C145.545 26.14 144.946 26.2971 144.287 26.2971C143.646 26.2971 143.107 26.1585 142.671 25.8812C142.243 25.6039 141.9 25.2712 141.639 24.883H141.584V28.5015C141.584 28.8619 141.412 29.0422 141.068 29.0422ZM144.203 25.2989C144.705 25.2989 145.151 25.188 145.541 24.9662C145.94 24.7351 146.251 24.4255 146.474 24.0373C146.706 23.6399 146.822 23.1916 146.822 22.6925C146.822 22.1934 146.706 21.7498 146.474 21.3616C146.251 20.9641 145.94 20.6545 145.541 20.4327C145.151 20.2016 144.705 20.0861 144.203 20.0861C143.711 20.0861 143.265 20.2016 142.866 20.4327C142.466 20.6545 142.15 20.9641 141.918 21.3616C141.695 21.7498 141.584 22.1934 141.584 22.6925C141.584 23.1916 141.695 23.6399 141.918 24.0373C142.15 24.4255 142.466 24.7351 142.866 24.9662C143.265 25.188 143.711 25.2989 144.203 25.2989Z" fill="#868789"/>
<path d="M133.423 26.269C133.312 26.269 133.2 26.2228 133.089 26.1304C132.987 26.0287 132.936 25.9178 132.936 25.7976C132.936 25.6682 132.991 25.5435 133.103 25.4233L135.541 22.6089L133.284 19.9748C133.182 19.8454 133.131 19.7252 133.131 19.6143C133.131 19.4942 133.186 19.3833 133.298 19.2816C133.419 19.1707 133.539 19.1152 133.66 19.1152C133.818 19.1152 133.957 19.1892 134.078 19.3371L136.196 21.9019L138.341 19.3509C138.471 19.1938 138.611 19.1152 138.759 19.1152C138.871 19.1152 138.978 19.1661 139.08 19.2677C139.191 19.3602 139.247 19.4665 139.247 19.5866C139.247 19.7068 139.191 19.8315 139.08 19.9609L136.823 22.5673L139.275 25.3956C139.386 25.5157 139.442 25.6405 139.442 25.7699C139.442 25.8901 139.382 26.0056 139.261 26.1165C139.15 26.2182 139.033 26.269 138.913 26.269C138.764 26.269 138.625 26.1904 138.495 26.0333L136.168 23.2883L133.841 26.0333C133.711 26.1904 133.572 26.269 133.423 26.269Z" fill="#868789"/>
<path d="M126.151 26.1599C125.78 26.1599 125.594 25.975 125.594 25.6053V17.287C125.594 16.9173 125.78 16.7324 126.151 16.7324H131.445C131.808 16.7324 131.989 16.8988 131.989 17.2315C131.989 17.5643 131.808 17.7306 131.445 17.7306H126.68V20.9054H130.888C131.25 20.9054 131.432 21.0672 131.432 21.3907C131.432 21.7142 131.25 21.8759 130.888 21.8759H126.68V25.1617H131.445C131.808 25.1617 131.989 25.328 131.989 25.6608C131.989 25.9935 131.808 26.1599 131.445 26.1599H126.151Z" fill="#868789"/>
<path d="M165.576 12.4051C165.232 12.4051 165.061 12.2249 165.061 11.8644V3.29655C165.061 2.93609 165.232 2.75586 165.576 2.75586C165.92 2.75586 166.092 2.93609 166.092 3.29655V6.5407H166.147C166.37 6.16175 166.695 5.8475 167.123 5.59795C167.559 5.3484 168.061 5.22363 168.627 5.22363C169.175 5.22363 169.663 5.3484 170.09 5.59795C170.518 5.83826 170.852 6.18024 171.093 6.62388C171.344 7.05828 171.47 7.57125 171.47 8.16277V11.8644C171.47 12.2249 171.298 12.4051 170.954 12.4051C170.61 12.4051 170.439 12.2249 170.439 11.8644V8.28755C170.439 7.63132 170.253 7.12298 169.881 6.76252C169.51 6.40206 169.031 6.22183 168.446 6.22183C167.991 6.22183 167.582 6.32812 167.22 6.5407C166.867 6.74404 166.588 7.02593 166.384 7.3864C166.189 7.74686 166.092 8.14891 166.092 8.59255V11.8644C166.092 12.2249 165.92 12.4051 165.576 12.4051Z" fill="#868789"/>
<path d="M162.214 12.4331C161.591 12.4331 161.066 12.239 160.639 11.8509C160.212 11.4627 159.998 10.8989 159.998 10.1595V6.3053H159.176C158.814 6.3053 158.633 6.14818 158.633 5.83393C158.633 5.51968 158.814 5.36256 159.176 5.36256H159.998V3.69889C159.998 3.33843 160.17 3.1582 160.514 3.1582C160.857 3.1582 161.029 3.33843 161.029 3.69889V5.36256H163.37C163.732 5.36256 163.913 5.51968 163.913 5.83393C163.913 6.14818 163.732 6.3053 163.37 6.3053H161.029V10.007C161.029 10.5153 161.155 10.8804 161.405 11.1022C161.656 11.324 161.94 11.4349 162.255 11.4349C162.413 11.4349 162.566 11.4118 162.715 11.3656C162.864 11.3194 163.008 11.264 163.147 11.1993C163.221 11.1623 163.286 11.1346 163.342 11.1161C163.398 11.0976 163.458 11.0883 163.523 11.0883C163.653 11.0883 163.76 11.1484 163.844 11.2686C163.927 11.3795 163.969 11.4858 163.969 11.5874C163.969 11.7631 163.867 11.9109 163.663 12.0311C163.217 12.2991 162.734 12.4331 162.214 12.4331Z" fill="#868789"/>
<path d="M150.809 12.4057C150.409 12.4057 150.135 12.1793 149.987 11.7264L148.036 5.94515C148.008 5.86196 147.994 5.78802 147.994 5.72332C147.994 5.5662 148.059 5.45067 148.189 5.37673C148.319 5.29354 148.445 5.25195 148.565 5.25195C148.788 5.25195 148.942 5.38597 149.025 5.65401L150.822 11.255L152.48 6.37493C152.536 6.2178 152.62 6.09303 152.731 6.0006C152.843 5.90818 152.996 5.86196 153.191 5.86196C153.386 5.86196 153.539 5.90818 153.651 6.0006C153.762 6.09303 153.846 6.2178 153.902 6.37493L155.601 11.2689L157.357 5.66787C157.441 5.39059 157.598 5.25195 157.831 5.25195C157.961 5.25195 158.086 5.28892 158.207 5.36286C158.328 5.4368 158.388 5.55234 158.388 5.70946C158.388 5.76492 158.369 5.8481 158.332 5.95901L156.396 11.7264C156.331 11.939 156.233 12.1053 156.103 12.2255C155.973 12.3456 155.801 12.4057 155.587 12.4057C155.383 12.4057 155.211 12.3456 155.072 12.2255C154.942 12.0961 154.84 11.9297 154.765 11.7264L153.177 7.17903L151.603 11.7264C151.538 11.9297 151.44 12.0961 151.31 12.2255C151.189 12.3456 151.022 12.4057 150.809 12.4057Z" fill="#868789"/>
<path d="M143.586 12.4338C142.899 12.4338 142.277 12.2767 141.719 11.9625C141.162 11.6482 140.721 11.2184 140.396 10.6731C140.071 10.1278 139.908 9.51317 139.908 8.82922C139.908 8.14527 140.071 7.53064 140.396 6.98532C140.721 6.44001 141.162 6.01023 141.719 5.69598C142.277 5.38173 142.899 5.22461 143.586 5.22461C144.274 5.22461 144.896 5.38173 145.453 5.69598C146.011 6.01023 146.452 6.44001 146.777 6.98532C147.102 7.53064 147.265 8.14527 147.265 8.82922C147.265 9.51317 147.102 10.1278 146.777 10.6731C146.452 11.2184 146.011 11.6482 145.453 11.9625C144.896 12.2767 144.274 12.4338 143.586 12.4338ZM143.586 11.4356C144.088 11.4356 144.534 11.3247 144.924 11.1029C145.323 10.8718 145.635 10.5576 145.857 10.1602C146.09 9.76272 146.206 9.31908 146.206 8.82922C146.206 8.33012 146.09 7.88647 145.857 7.49829C145.635 7.10085 145.323 6.79123 144.924 6.56941C144.534 6.33834 144.088 6.22281 143.586 6.22281C143.085 6.22281 142.634 6.33834 142.235 6.56941C141.845 6.79123 141.534 7.10085 141.301 7.49829C141.079 7.88647 140.967 8.33012 140.967 8.82922C140.967 9.31908 141.079 9.76272 141.301 10.1602C141.534 10.5576 141.845 10.8718 142.235 11.1029C142.634 11.3247 143.085 11.4356 143.586 11.4356Z" fill="#868789"/>
<path d="M135.723 12.4061C135.379 12.4061 135.207 12.2259 135.207 11.8654V5.79303C135.207 5.43257 135.379 5.25234 135.723 5.25234C136.066 5.25234 136.238 5.43257 136.238 5.79303V6.51395H136.294C136.48 6.16273 136.749 5.86235 137.102 5.6128C137.455 5.35401 137.859 5.22461 138.314 5.22461C138.491 5.22461 138.653 5.24309 138.802 5.28006C138.96 5.31704 139.099 5.36787 139.22 5.43257C139.452 5.54348 139.568 5.7006 139.568 5.90394C139.568 6.02409 139.526 6.14887 139.443 6.27826C139.368 6.40766 139.252 6.47236 139.094 6.47236C139.048 6.47236 138.987 6.46312 138.913 6.44463C138.839 6.4169 138.769 6.3938 138.704 6.37531C138.621 6.34758 138.528 6.32448 138.425 6.30599C138.333 6.28751 138.23 6.27826 138.119 6.27826C137.757 6.27826 137.432 6.38455 137.144 6.59713C136.865 6.80047 136.642 7.08237 136.475 7.44283C136.317 7.80329 136.238 8.21459 136.238 8.67672V11.8654C136.238 12.2259 136.066 12.4061 135.723 12.4061Z" fill="#868789"/>
<path d="M129.634 12.4332C128.752 12.4332 127.957 12.2299 127.251 11.8232C126.546 11.4165 125.988 10.8481 125.58 10.118C125.18 9.37856 124.98 8.52362 124.98 7.55315C124.98 6.56419 125.185 5.70925 125.594 4.98833C126.011 4.26741 126.569 3.71285 127.265 3.32466C127.962 2.92723 128.738 2.72852 129.592 2.72852C131.041 2.72852 132.225 3.28307 133.145 4.39218C133.294 4.56779 133.368 4.72492 133.368 4.86355C133.368 4.99295 133.308 5.1131 133.187 5.22401C133.075 5.32568 132.955 5.37652 132.825 5.37652C132.732 5.37652 132.653 5.35341 132.588 5.3072C132.523 5.25174 132.444 5.1778 132.351 5.08538C132.007 4.71567 131.622 4.40142 131.194 4.14263C130.776 3.88384 130.238 3.75444 129.578 3.75444C128.919 3.75444 128.324 3.91157 127.795 4.22582C127.265 4.53082 126.847 4.96522 126.541 5.52902C126.244 6.09282 126.095 6.76753 126.095 7.55315C126.095 8.34801 126.253 9.03658 126.569 9.61886C126.894 10.1919 127.326 10.6355 127.865 10.9498C128.403 11.2548 129.007 11.4073 129.676 11.4073C130.224 11.4073 130.725 11.3056 131.181 11.1023C131.636 10.8897 132.003 10.5893 132.281 10.2011C132.56 9.80372 132.699 9.33697 132.699 8.8009V8.31566H129.941C129.578 8.31566 129.397 8.14929 129.397 7.81656C129.397 7.48383 129.578 7.31746 129.941 7.31746H133.201C133.572 7.31746 133.758 7.50231 133.758 7.87202V8.77317C133.758 9.40166 133.642 9.94698 133.41 10.4091C133.178 10.862 132.862 11.2409 132.462 11.5459C132.072 11.8417 131.631 12.0635 131.139 12.2114C130.646 12.3593 130.145 12.4332 129.634 12.4332Z" fill="#868789"/>
<path d="M116.154 16C116.154 24.8151 108.937 32 100.081 32C91.2256 32 84.0078 24.8151 84.0078 16C84.0078 7.18491 91.2256 0 100.081 0C108.937 0 116.154 7.18491 116.154 16Z" fill="#F48734"/>
<path d="M111.669 8.69423C111.366 8.45272 111.002 8.33196 110.638 8.39234L105.301 9.23762C104.815 9.298 104.391 9.66026 104.269 10.1433C104.148 10.6263 104.33 11.1093 104.694 11.4112L105.786 12.3169L102.814 15.6376L98.9319 12.6791C98.0221 11.9546 96.6877 12.0754 95.8386 12.8603L88.5601 20.1659C87.7716 20.9508 87.7716 22.1584 88.5601 22.9433C88.924 23.3055 89.4699 23.4867 89.9551 23.4867C90.4403 23.4867 90.9863 23.3056 91.3502 22.8829L97.6582 16.6037L101.601 19.6225C102.571 20.3471 103.966 20.2263 104.755 19.3206L108.758 14.732L109.91 15.6376C110.274 15.9395 110.82 15.9999 111.245 15.8188C111.669 15.6376 111.972 15.1546 111.972 14.6716V9.66026C112.094 9.298 111.912 8.93574 111.669 8.69423Z" fill="white"/>
</svg>
