<svg width="180" height="32" viewBox="0 0 180 32" fill="none" xmlns="http://www.w3.org/2000/svg">
<path d="M99.373 32C108.18 32 115.32 24.8366 115.32 16C115.32 7.16344 108.18 0 99.373 0C90.5656 0 83.4258 7.16344 83.4258 16C83.4258 24.8366 90.5656 32 99.373 32Z" fill="#FF5F5F"/>
<path fill-rule="evenodd" clip-rule="evenodd" d="M108.415 20.3601C108.415 22.987 106.273 25.1362 103.655 25.1362C101.037 25.1362 98.8945 22.987 98.8945 20.3601C98.8945 17.7332 101.037 15.584 103.655 15.584C106.273 15.584 108.415 17.7332 108.415 20.3601ZM102.227 22.6288L106.154 18.6885C106.392 18.4497 106.392 18.0914 106.154 17.8526C105.916 17.6138 105.559 17.6138 105.321 17.8526L101.394 21.793C101.156 22.0318 101.156 22.39 101.394 22.6288C101.632 22.8676 101.989 22.8676 102.227 22.6288ZM102.227 19.7034C102.584 19.7034 102.941 19.4049 102.941 18.987C102.941 18.5691 102.643 18.2706 102.227 18.2706C101.87 18.2706 101.513 18.5691 101.513 18.987C101.513 19.4049 101.87 19.7034 102.227 19.7034ZM105.321 22.2108C105.678 22.2108 106.035 21.9124 106.035 21.4944C106.035 21.0765 105.738 20.778 105.321 20.778C104.904 20.778 104.607 21.0765 104.607 21.4944C104.607 21.9124 104.904 22.2108 105.321 22.2108Z" fill="white"/>
<path d="M99.1914 16.0612C100.024 15.2851 100.858 13.9717 100.858 12.5388V10.2701C100.858 7.82238 99.0724 6.86719 97.5253 6.86719C95.9782 6.86719 94.193 7.82238 94.193 10.2701V12.5388C94.193 14.0314 95.0261 15.2851 95.8591 16.0612V16.8373C95.8591 17.3149 95.3831 18.0911 93.0029 18.509C92.3484 18.6284 91.7534 18.9269 91.2773 19.4045C90.8013 19.8821 90.5038 20.4791 90.3848 21.1358H97.3467C97.0492 18.8672 97.8228 17.0761 99.1914 16.0612Z" fill="white"/>
<path d="M37.3087 11.1635C40.0459 11.1635 42.2476 13.3725 42.2476 16.1188C42.2476 18.865 40.0459 21.074 37.3087 21.074C34.5715 21.074 32.3699 18.865 32.3699 16.1188C32.3699 13.3725 34.5715 11.1635 37.3087 11.1635ZM37.3087 9.19336C33.5005 9.19336 30.4062 12.2979 30.4062 16.1188C30.4062 19.9397 33.5005 23.0441 37.3087 23.0441C41.117 23.0441 44.2112 19.9397 44.2112 16.1188C44.2112 12.2979 41.117 9.19336 37.3087 9.19336Z" fill="#595A5A"/>
<path d="M13.805 16.1188C13.805 12.2979 10.7108 9.19336 6.90249 9.19336C3.09421 9.19336 0 12.2979 0 16.1188C0 19.9397 3.09421 23.0441 6.90249 23.0441C8.86613 23.0441 10.5918 22.2083 11.8414 20.8949V22.268C11.8414 22.8053 12.2579 23.2232 12.7934 23.2232C13.329 23.2232 13.7455 22.8053 13.7455 22.268V16.4173V16.3575C13.805 16.2381 13.805 16.1785 13.805 16.1188ZM6.90249 21.074C4.16529 21.074 1.9636 18.865 1.9636 16.1188C1.9636 13.3725 4.16529 11.1635 6.90249 11.1635C9.63969 11.1635 11.8414 13.3725 11.8414 16.1188C11.9009 18.865 9.63969 21.074 6.90249 21.074Z" fill="#595A5A"/>
<path d="M74.5589 16.059C74.4994 12.2978 71.4647 9.19336 67.6564 9.19336C63.8481 9.19336 60.7539 12.2979 60.7539 16.1188C60.7539 19.9397 63.8481 23.0441 67.6564 23.0441C69.62 23.0441 71.3457 22.2083 72.5953 20.8949V22.268C72.5953 22.8053 73.0118 23.2232 73.5473 23.2232C74.0829 23.2232 74.4994 22.8053 74.4994 22.268V16.1784C74.6184 16.1187 74.5589 16.1187 74.5589 16.059ZM67.7159 21.074C64.9787 21.074 62.7771 18.865 62.7771 16.1188C62.7771 13.3725 64.9787 11.1635 67.7159 11.1635C70.4531 11.1635 72.6548 13.3725 72.6548 16.1188C72.6548 18.865 70.4531 21.074 67.7159 21.074Z" fill="#595A5A"/>
<path d="M59.3842 15.7622C59.3842 15.7025 59.3842 15.6428 59.3842 15.5831V4.06071C59.3842 3.5234 58.9676 3.10547 58.4321 3.10547C57.8966 3.10547 57.4801 3.5234 57.4801 4.06071V11.404C56.2305 10.0906 54.4453 9.25475 52.5412 9.25475C48.7329 9.25475 45.6387 12.3592 45.6387 16.1801C45.6387 20.001 48.7329 23.1055 52.5412 23.1055C56.3494 23.1055 59.4437 20.001 59.4437 16.1801C59.3842 16.001 59.3842 15.8816 59.3842 15.7622ZM52.5412 21.0756C49.804 21.0756 47.6023 18.8667 47.6023 16.1204C47.6023 13.3742 49.804 11.1652 52.5412 11.1652C55.2784 11.1652 57.4801 13.3742 57.4801 16.1204C57.4801 18.8667 55.2784 21.0756 52.5412 21.0756Z" fill="#595A5A"/>
<path d="M28.9788 16.1188C28.9788 12.2979 25.8846 9.19336 22.0763 9.19336C18.268 9.19336 15.1738 12.2979 15.1738 16.1188C15.1738 19.9397 18.268 23.0441 22.0763 23.0441C24.04 23.0441 25.7656 22.2083 27.0152 20.9546V21.8501C27.0152 24.6561 24.8135 26.6262 21.6598 26.6262C20.2912 26.6262 19.1606 26.3277 18.268 25.671C17.8515 25.3725 17.2565 25.4322 16.8995 25.8501C16.6019 26.268 16.6614 26.865 17.0779 27.2232C18.268 28.1187 19.8151 28.5964 21.6003 28.5964C25.8251 28.5964 28.9193 25.7904 28.9193 21.9098V16.477C28.9193 16.477 28.9193 16.477 28.9193 16.4173C28.9788 16.2382 28.9788 16.1785 28.9788 16.1188ZM22.1358 21.074C19.3986 21.074 17.197 18.865 17.197 16.1188C17.197 13.3725 19.3986 11.1635 22.1358 11.1635C24.873 11.1635 27.0747 13.3725 27.0747 16.1188C27.0747 18.865 24.873 21.074 22.1358 21.074Z" fill="#595A5A"/>
<path d="M124.481 12.5974C124.124 12.5974 123.945 12.4183 123.945 12.0601V3.46311C123.945 3.1049 124.124 2.92578 124.481 2.92578H127.397C127.932 2.92578 128.468 3.04521 128.884 3.28401C129.36 3.52282 129.717 3.8213 130.015 4.29891C130.312 4.71682 130.431 5.25414 130.431 5.91086C130.431 6.62728 130.253 7.28399 129.836 7.7019C129.479 8.17951 129.003 8.47804 128.468 8.65715L130.55 11.8213C130.61 11.9407 130.669 12.0601 130.669 12.1198C130.669 12.2989 130.61 12.4183 130.431 12.478C130.312 12.5974 130.193 12.5974 130.074 12.5974C129.896 12.5974 129.777 12.478 129.658 12.2989L127.397 8.77652H125.016V12.0004C124.957 12.4183 124.778 12.5974 124.481 12.5974ZM127.278 3.88103H124.957V7.76163H127.278C127.635 7.76163 127.992 7.70191 128.289 7.52281C128.587 7.4034 128.825 7.16461 129.063 6.8661C129.301 6.5676 129.36 6.20936 129.36 5.79145C129.36 5.37354 129.241 5.01533 129.063 4.71683C128.884 4.41832 128.646 4.23923 128.289 4.06012C127.992 3.94072 127.635 3.88103 127.278 3.88103Z" fill="#868789"/>
<path d="M135.252 12.5972C134.597 12.5972 134.062 12.4181 133.526 12.1196C132.991 11.8211 132.574 11.3435 132.277 10.8061C131.979 10.2688 131.801 9.61212 131.801 8.95541C131.801 8.23899 131.979 7.64197 132.277 7.04495C132.574 6.50764 132.991 6.08972 133.586 5.73151C134.121 5.433 134.716 5.25391 135.371 5.25391C135.788 5.25391 136.204 5.31359 136.621 5.49269C137.037 5.6718 137.394 5.85091 137.751 6.20912C138.108 6.50762 138.346 6.86585 138.584 7.34346C138.763 7.82107 138.882 8.35839 138.882 8.95541V12.0599C138.882 12.4181 138.703 12.5972 138.406 12.5972C138.108 12.5972 137.93 12.4181 137.93 12.0599V11.2241H137.87C137.632 11.642 137.275 11.9405 136.859 12.239C136.442 12.4778 135.907 12.5972 135.252 12.5972ZM135.371 11.5823C135.847 11.5823 136.323 11.4629 136.68 11.2241C137.037 10.9853 137.394 10.6867 137.573 10.2688C137.811 9.8509 137.93 9.433 137.93 8.89568C137.93 8.41807 137.811 7.94047 137.573 7.52256C137.335 7.10465 137.037 6.80615 136.68 6.56735C136.323 6.32854 135.847 6.20912 135.371 6.20912C134.895 6.20912 134.478 6.32854 134.062 6.56735C133.705 6.80615 133.348 7.10465 133.169 7.52256C132.931 7.94047 132.812 8.35837 132.812 8.89568C132.812 9.433 132.931 9.8509 133.169 10.2688C133.407 10.6867 133.705 10.9853 134.062 11.2241C134.419 11.4629 134.895 11.5823 135.371 11.5823Z" fill="#868789"/>
<path d="M142.986 12.5969C142.391 12.5969 141.856 12.4178 141.439 11.9999C141.023 11.582 140.844 11.0446 140.844 10.2685V6.32824H140.071C139.714 6.32824 139.535 6.14914 139.535 5.85063C139.535 5.55212 139.714 5.37303 140.071 5.37303H140.844V3.70135C140.844 3.34315 141.023 3.16406 141.32 3.16406C141.618 3.16406 141.796 3.34315 141.796 3.70135V5.37303H144.057C144.414 5.37303 144.593 5.55212 144.593 5.85063C144.593 6.14914 144.414 6.32824 144.057 6.32824H141.796V10.0894C141.796 10.6267 141.915 10.985 142.153 11.2238C142.391 11.4626 142.689 11.582 142.986 11.582C143.165 11.582 143.284 11.582 143.462 11.5223C143.581 11.4626 143.76 11.4029 143.879 11.3432C143.938 11.2835 143.998 11.2835 144.057 11.2835C144.117 11.2835 144.177 11.2835 144.236 11.2835C144.355 11.2835 144.474 11.3431 144.534 11.4626C144.593 11.582 144.653 11.7014 144.653 11.8208C144.653 11.9999 144.534 12.179 144.355 12.2984C143.938 12.4775 143.462 12.5969 142.986 12.5969Z" fill="#868789"/>
<path d="M148.819 12.5972C148.165 12.5972 147.57 12.4181 147.034 12.1196C146.499 11.8211 146.082 11.4032 145.785 10.8061C145.487 10.2688 145.309 9.6121 145.309 8.89568C145.309 8.17927 145.487 7.52254 145.785 6.98523C146.082 6.44791 146.499 6.03002 147.034 5.73151C147.57 5.433 148.105 5.25391 148.7 5.25391C149.355 5.25391 149.89 5.433 150.366 5.73151C150.842 6.03002 151.2 6.44793 151.497 6.92554C151.735 7.40315 151.914 7.94045 151.914 8.47777C151.914 8.77627 151.854 8.95538 151.795 9.07478C151.735 9.19418 151.616 9.2539 151.497 9.3136C151.378 9.3733 151.259 9.37329 151.14 9.37329H146.38C146.499 10.0897 146.737 10.6271 147.213 11.045C147.689 11.4629 148.224 11.642 148.879 11.642C149.236 11.642 149.593 11.5822 149.89 11.4628C150.188 11.3434 150.485 11.1643 150.723 10.9852C150.783 10.9255 150.842 10.9255 150.962 10.8658C151.021 10.8061 151.081 10.8061 151.2 10.8061C151.319 10.8061 151.438 10.8658 151.497 10.9852C151.616 11.1046 151.616 11.2241 151.616 11.3435C151.616 11.5226 151.497 11.642 151.319 11.8211C151.081 12.0002 150.724 12.239 150.247 12.4181C149.831 12.5375 149.355 12.5972 148.819 12.5972ZM148.641 6.26884C148.046 6.26884 147.51 6.44794 147.094 6.86585C146.677 7.28377 146.439 7.76136 146.32 8.41808H150.783C150.783 7.82106 150.545 7.28377 150.128 6.86585C149.831 6.50765 149.295 6.26884 148.641 6.26884Z" fill="#868789"/>
<path d="M127.815 25.8499C127.101 25.8499 126.447 25.7305 125.911 25.432C125.376 25.1335 124.9 24.7753 124.483 24.2977C124.126 23.8201 123.829 23.2828 123.59 22.6858C123.352 22.0887 123.293 21.4917 123.293 20.8947C123.293 20.2977 123.412 19.7007 123.59 19.1037C123.769 18.5066 124.067 17.9693 124.483 17.4917C124.84 17.0141 125.316 16.6559 125.911 16.3574C126.447 16.0589 127.101 15.9395 127.815 15.9395C129.243 15.9395 130.433 16.5365 131.326 17.7305C131.386 17.8499 131.445 17.9096 131.505 17.9693C131.564 18.029 131.564 18.1484 131.564 18.2081C131.564 18.3275 131.505 18.4469 131.386 18.5663C131.267 18.6857 131.148 18.7454 131.029 18.7454C130.91 18.7454 130.85 18.7454 130.791 18.6857C130.731 18.626 130.672 18.5663 130.553 18.4469C130.196 18.029 129.838 17.6708 129.422 17.432C129.005 17.1335 128.47 17.0141 127.815 17.0141C127.28 17.0141 126.744 17.1335 126.328 17.3126C125.911 17.5514 125.554 17.8499 125.257 18.2081C124.959 18.5663 124.781 18.9842 124.602 19.4619C124.424 19.9395 124.364 20.4171 124.364 20.8947C124.364 21.3723 124.424 21.8499 124.602 22.3275C124.721 22.8051 124.959 23.2231 125.257 23.5813C125.554 23.9395 125.911 24.238 126.328 24.4768C126.744 24.7156 127.22 24.835 127.815 24.835C128.291 24.835 128.648 24.7753 129.005 24.5962C129.362 24.4171 129.66 24.2977 129.898 24.0589C130.136 23.8201 130.374 23.6409 130.553 23.4021C130.672 23.2827 130.731 23.1633 130.791 23.1036C130.85 23.0439 130.969 22.9843 131.029 22.9843C131.148 22.9843 131.267 23.044 131.386 23.1634C131.505 23.2828 131.564 23.4022 131.564 23.5216C131.564 23.641 131.505 23.8798 131.326 24.0589C130.969 24.5365 130.493 24.9544 129.898 25.3126C129.362 25.6708 128.648 25.8499 127.815 25.8499Z" fill="#868789"/>
<path d="M133.349 25.8497C132.992 25.8497 132.873 25.6705 132.873 25.3123V16.5959C132.873 16.2377 133.052 16.0586 133.349 16.0586C133.647 16.0586 133.825 16.2377 133.825 16.5959V19.8795H133.885C134.123 19.5213 134.42 19.1631 134.837 18.9243C135.253 18.6855 135.729 18.5661 136.265 18.5661C136.8 18.5661 137.276 18.6855 137.693 18.9243C138.109 19.1631 138.407 19.5213 138.645 19.9392C138.883 20.3571 139.002 20.8944 139.002 21.4915V25.2526C139.002 25.6109 138.823 25.7899 138.526 25.7899C138.228 25.7899 138.05 25.6109 138.05 25.2526V21.6108C138.05 20.9541 137.871 20.4168 137.514 20.0586C137.157 19.7004 136.681 19.5213 136.146 19.5213C135.729 19.5213 135.313 19.6407 134.956 19.8198C134.599 20.0586 134.361 20.2974 134.123 20.7153C133.944 21.0735 133.825 21.4914 133.825 21.9691V25.3123C133.825 25.6705 133.647 25.8497 133.349 25.8497Z" fill="#868789"/>
<path d="M143.822 25.8511C143.168 25.8511 142.632 25.672 142.097 25.3735C141.561 25.075 141.145 24.5974 140.847 24.06C140.55 23.5227 140.371 22.866 140.371 22.2093C140.371 21.4929 140.55 20.8959 140.847 20.2989C141.145 19.7615 141.561 19.3436 142.156 18.9854C142.692 18.6869 143.287 18.5078 143.941 18.5078C144.358 18.5078 144.774 18.5675 145.191 18.7466C145.607 18.9257 145.965 19.1048 146.322 19.463C146.679 19.8212 146.917 20.1198 147.155 20.5974C147.333 21.075 147.452 21.6123 147.452 22.2093V25.3138C147.452 25.672 147.274 25.8511 146.976 25.8511C146.679 25.8511 146.5 25.672 146.5 25.3138V24.478H146.441C146.202 24.8959 145.845 25.1944 145.429 25.4929C144.953 25.7317 144.417 25.8511 143.822 25.8511ZM143.882 24.8362C144.358 24.8362 144.774 24.7168 145.191 24.478C145.548 24.2392 145.905 23.9406 146.083 23.5227C146.322 23.1048 146.441 22.6869 146.441 22.1496C146.441 21.6123 146.322 21.1944 146.083 20.7765C145.845 20.3586 145.548 20.06 145.191 19.8212C144.834 19.5824 144.358 19.463 143.882 19.463C143.406 19.463 142.989 19.5824 142.573 19.8212C142.216 20.06 141.859 20.3586 141.68 20.7765C141.442 21.1944 141.323 21.6123 141.323 22.1496C141.323 22.6272 141.442 23.1048 141.68 23.5227C141.918 23.9406 142.216 24.2392 142.573 24.478C142.93 24.7168 143.406 24.8362 143.882 24.8362Z" fill="#868789"/>
<path d="M149.357 25.8509C149 25.8509 148.881 25.6717 148.881 25.3135V19.1643C148.881 18.8061 149.059 18.627 149.357 18.627C149.654 18.627 149.833 18.8061 149.833 19.1643V19.9404H149.892C150.13 19.5822 150.428 19.224 150.845 18.9852C151.261 18.7464 151.737 18.627 152.273 18.627C152.808 18.627 153.284 18.7464 153.701 18.9852C154.117 19.224 154.415 19.5822 154.653 20.0001C154.891 20.418 155.01 20.9553 155.01 21.5523V25.3135C155.01 25.6717 154.831 25.8509 154.534 25.8509C154.236 25.8509 154.058 25.6717 154.058 25.3135V21.6718C154.058 21.015 153.879 20.4777 153.522 20.1195C153.165 19.7613 152.689 19.5822 152.154 19.5822C151.737 19.5822 151.321 19.7016 150.964 19.8807C150.606 20.1195 150.368 20.3583 150.13 20.7762C149.952 21.1344 149.833 21.5523 149.833 22.0299V25.3733C149.892 25.6718 149.714 25.8509 149.357 25.8509Z" fill="#868789"/>
<path d="M157.21 25.8509C156.853 25.8509 156.734 25.6717 156.734 25.3135V19.1643C156.734 18.8061 156.913 18.627 157.21 18.627C157.508 18.627 157.686 18.8061 157.686 19.1643V19.9404H157.746C157.984 19.5822 158.281 19.224 158.698 18.9852C159.115 18.7464 159.591 18.627 160.126 18.627C160.662 18.627 161.138 18.7464 161.554 18.9852C161.971 19.224 162.268 19.5822 162.506 20.0001C162.744 20.418 162.863 20.9553 162.863 21.5523V25.3135C162.863 25.6717 162.685 25.8509 162.387 25.8509C162.09 25.8509 161.911 25.6717 161.911 25.3135V21.6718C161.911 21.015 161.733 20.4777 161.376 20.1195C161.019 19.7613 160.543 19.5822 160.007 19.5822C159.591 19.5822 159.174 19.7016 158.817 19.8807C158.46 20.1195 158.222 20.3583 157.984 20.7762C157.805 21.1344 157.686 21.5523 157.686 22.0299V25.3733C157.746 25.6718 157.567 25.8509 157.21 25.8509Z" fill="#868789"/>
<path d="M167.743 25.8511C167.089 25.8511 166.494 25.672 165.958 25.3735C165.423 25.075 165.006 24.6571 164.708 24.06C164.411 23.5227 164.232 22.866 164.232 22.1496C164.232 21.4332 164.411 20.7764 164.708 20.2391C165.006 19.7018 165.423 19.2839 165.958 18.9854C166.494 18.6869 167.029 18.5078 167.624 18.5078C168.279 18.5078 168.814 18.6869 169.29 18.9854C169.766 19.2839 170.123 19.7018 170.421 20.1794C170.659 20.6571 170.837 21.1944 170.837 21.7317C170.837 22.0302 170.778 22.2093 170.718 22.3287C170.659 22.4481 170.54 22.5078 170.421 22.5675C170.302 22.6272 170.183 22.6272 170.064 22.6272H165.303C165.422 23.3436 165.66 23.8809 166.137 24.2988C166.613 24.7167 167.148 24.8958 167.803 24.8958C168.16 24.8958 168.517 24.8362 168.814 24.7167C169.112 24.5973 169.409 24.4182 169.647 24.2391C169.707 24.1794 169.766 24.1794 169.885 24.1197C169.945 24.06 170.004 24.06 170.123 24.06C170.242 24.06 170.361 24.1197 170.421 24.2391C170.54 24.3585 170.54 24.4779 170.54 24.5973C170.54 24.7764 170.421 24.8959 170.242 25.075C170.004 25.2541 169.647 25.4929 169.171 25.672C168.755 25.7914 168.279 25.8511 167.743 25.8511ZM167.565 19.5824C166.97 19.5824 166.434 19.7615 166.018 20.1794C165.601 20.5377 165.363 21.075 165.244 21.7317H169.707C169.707 21.1347 169.469 20.5974 169.052 20.1794C168.695 19.7615 168.219 19.5824 167.565 19.5824Z" fill="#868789"/>
<path d="M172.503 25.8497C172.146 25.8497 172.027 25.6705 172.027 25.3123V16.5959C172.027 16.2377 172.206 16.0586 172.503 16.0586C172.801 16.0586 172.979 16.2377 172.979 16.5959V25.3123C172.979 25.6705 172.86 25.8497 172.503 25.8497Z" fill="#868789"/>
<path d="M177.263 25.85C176.727 25.85 176.251 25.7306 175.775 25.6112C175.299 25.4918 174.942 25.1933 174.704 24.9545C174.644 24.8948 174.585 24.8351 174.585 24.7754C174.585 24.7157 174.525 24.656 174.525 24.5366C174.525 24.4172 174.585 24.2978 174.644 24.1784C174.763 24.059 174.823 23.9992 174.942 23.9992C175.061 23.9992 175.18 24.0589 175.418 24.2381C175.656 24.4172 175.954 24.5963 176.251 24.7157C176.549 24.8351 176.965 24.8948 177.382 24.8948C177.679 24.8948 177.917 24.8351 178.215 24.7754C178.512 24.7157 178.691 24.5963 178.869 24.4171C179.048 24.238 179.107 23.9993 179.107 23.7604C179.107 23.4022 178.988 23.1634 178.691 22.9843C178.393 22.8052 178.096 22.7455 177.739 22.6858L176.668 22.5067C176.37 22.447 176.013 22.3276 175.715 22.2082C175.418 22.0888 175.12 21.85 174.942 21.6112C174.763 21.3724 174.644 21.0142 174.644 20.5963C174.644 20.1187 174.763 19.7604 175.001 19.4619C175.239 19.1634 175.596 18.9246 175.954 18.8052C176.37 18.6261 176.787 18.5664 177.263 18.5664C177.739 18.5664 178.215 18.6261 178.572 18.8052C178.988 18.9843 179.286 19.1634 179.524 19.3425C179.643 19.4022 179.702 19.4619 179.702 19.5216C179.762 19.5813 179.762 19.7007 179.762 19.7604C179.762 19.8798 179.702 19.9992 179.643 20.1186C179.524 20.238 179.464 20.2978 179.286 20.2978C179.226 20.2978 179.167 20.2977 179.107 20.238C179.048 20.1783 178.988 20.1783 178.869 20.0589C178.631 19.8798 178.393 19.7604 178.096 19.641C177.858 19.5216 177.501 19.4619 177.144 19.4619C176.906 19.4619 176.668 19.5216 176.43 19.5813C176.192 19.641 176.013 19.7604 175.835 19.9395C175.656 20.1186 175.596 20.2977 175.596 20.5365C175.596 20.7754 175.656 20.9545 175.775 21.0739C175.894 21.1933 176.073 21.3127 176.251 21.3724C176.43 21.4321 176.608 21.4918 176.787 21.4918L177.858 21.6709C178.274 21.7306 178.572 21.85 178.929 22.0291C179.286 22.2082 179.464 22.3873 179.702 22.6858C179.94 22.9843 180 23.2828 180 23.7007C180 24.1783 179.881 24.5962 179.583 24.8948C179.345 25.1933 178.988 25.4321 178.572 25.6112C178.155 25.7903 177.739 25.85 177.263 25.85Z" fill="#868789"/>
</svg>
