<svg width="197" height="29" viewBox="0 0 197 29" fill="none" xmlns="http://www.w3.org/2000/svg">
<path d="M37.6035 8.16155C40.3624 8.16155 42.5815 10.3705 42.5815 13.1168C42.5815 15.8631 40.3624 18.072 37.6035 18.072C34.8447 18.072 32.6257 15.8631 32.6257 13.1168C32.6257 10.3705 34.8447 8.16155 37.6035 8.16155ZM37.6035 6.19141C33.7652 6.19141 30.6465 9.29591 30.6465 13.1168C30.6465 16.9377 33.7652 20.0422 37.6035 20.0422C41.4419 20.0422 44.5606 16.9377 44.5606 13.1168C44.5606 9.29591 41.4419 6.19141 37.6035 6.19141Z" fill="#595A5A"/>
<path d="M13.9141 13.1168C13.9141 9.29591 10.7954 6.19141 6.95706 6.19141C3.11867 6.19141 0 9.29591 0 13.1168C0 16.9377 3.11867 20.0422 6.95706 20.0422C8.93623 20.0422 10.6755 19.2064 11.935 17.8929V19.2661C11.935 19.8034 12.3548 20.2213 12.8946 20.2213C13.4344 20.2213 13.8542 19.8034 13.8542 19.2661V13.4153V13.3556C13.9141 13.2362 13.9141 13.1765 13.9141 13.1168ZM6.95706 18.072C4.19822 18.072 1.97912 15.8631 1.97912 13.1168C1.97912 10.3705 4.19822 8.16155 6.95706 8.16155C9.7159 8.16155 11.935 10.3705 11.935 13.1168C11.995 15.8631 9.7159 18.072 6.95706 18.072Z" fill="#595A5A"/>
<path d="M75.1485 13.0571C75.0885 9.29589 72.0298 6.19141 68.1914 6.19141C64.353 6.19141 61.2344 9.29591 61.2344 13.1168C61.2344 16.9377 64.353 20.0422 68.1914 20.0422C70.1706 20.0422 71.9099 19.2064 73.1694 17.8929V19.2661C73.1694 19.8034 73.5892 20.2213 74.129 20.2213C74.6687 20.2213 75.0885 19.8034 75.0885 19.2661V13.1765C75.2085 13.1168 75.1485 13.1168 75.1485 13.0571ZM68.2514 18.072C65.4926 18.072 63.2735 15.8631 63.2735 13.1168C63.2735 10.3705 65.4926 8.16155 68.2514 8.16155C71.0102 8.16155 73.2293 10.3705 73.2293 13.1168C73.2293 15.8631 71.0102 18.072 68.2514 18.072Z" fill="#595A5A"/>
<path d="M59.8542 12.7583C59.8542 12.6986 59.8542 12.6389 59.8542 12.5792V1.05681C59.8542 0.519495 59.4344 0.101562 58.8946 0.101562C58.3548 0.101562 57.935 0.519495 57.935 1.05681V8.40009C56.6755 7.08666 54.8763 6.25085 52.9571 6.25085C49.1187 6.25085 46 9.35531 46 13.1762C46 16.9971 49.1187 20.1016 52.9571 20.1016C56.7955 20.1016 59.9142 16.9971 59.9142 13.1762C59.8542 12.9971 59.8542 12.8777 59.8542 12.7583ZM52.9571 18.0717C50.1982 18.0717 47.9792 15.8628 47.9792 13.1165C47.9792 10.3703 50.1982 8.16127 52.9571 8.16127C55.7159 8.16127 57.935 10.3703 57.935 13.1165C57.935 15.8628 55.7159 18.0717 52.9571 18.0717Z" fill="#595A5A"/>
<path d="M29.2071 13.1168C29.2071 9.29591 26.0884 6.19141 22.25 6.19141C18.4116 6.19141 15.293 9.29591 15.293 13.1168C15.293 16.9377 18.4116 20.0422 22.25 20.0422C24.2292 20.0422 25.9685 19.2063 27.228 17.9526V18.8481C27.228 21.6541 25.0089 23.6243 21.8302 23.6243C20.4508 23.6243 19.3113 23.3258 18.4116 22.669C17.9918 22.3705 17.3921 22.4302 17.0323 22.8481C16.7324 23.2661 16.7923 23.8631 17.2121 24.2213C18.4116 25.1168 19.971 25.5944 21.7702 25.5944C26.0284 25.5944 29.1471 22.7884 29.1471 18.9078V13.475C29.1471 13.475 29.1471 13.475 29.1471 13.4153C29.2071 13.2362 29.2071 13.1765 29.2071 13.1168ZM22.31 18.072C19.5512 18.072 17.3321 15.8631 17.3321 13.1168C17.3321 10.3705 19.5512 8.16155 22.31 8.16155C25.0688 8.16155 27.2879 10.3705 27.2879 13.1168C27.2879 15.8631 25.0688 18.072 22.31 18.072Z" fill="#595A5A"/>
<path d="M127.026 10.6475C126.614 10.6475 126.408 10.4415 126.408 10.0295V0.744954C126.408 0.332953 126.614 0.126953 127.026 0.126953H130.09C130.74 0.126953 131.362 0.240859 131.954 0.468671C132.548 0.696483 133.076 1.03093 133.541 1.47444C134.007 1.91794 134.373 2.46809 134.639 3.12244C134.909 3.77679 135.042 4.53294 135.042 5.38844C135.042 6.24395 134.909 7.00009 134.639 7.65445C134.37 8.3088 134.004 8.85894 133.541 9.30245C133.076 9.74596 132.548 10.0804 131.954 10.3082C131.36 10.536 130.74 10.6499 130.09 10.6499H127.026V10.6475ZM129.998 1.23935H127.615V9.53269H129.998C130.689 9.53269 131.321 9.38243 131.893 9.08433C132.465 8.78624 132.928 8.32819 133.277 7.71504C133.629 7.10188 133.803 6.32393 133.803 5.38602C133.803 4.44811 133.629 3.67016 133.277 3.057C132.926 2.44385 132.465 1.9858 131.893 1.68771C131.321 1.38961 130.689 1.23935 129.998 1.23935Z" fill="#7B7007"/>
<path d="M137.162 13.8966C136.759 13.8966 136.558 13.71 136.558 13.3392C136.558 12.9684 136.759 12.7818 137.162 12.7818H137.317C137.678 12.7818 137.961 12.6775 138.167 12.4715C138.373 12.2655 138.584 11.9238 138.802 11.4512L139.127 10.7387L135.863 3.6208C135.812 3.4972 135.785 3.39784 135.785 3.32756C135.785 3.15306 135.863 3.01734 136.018 2.92525C136.173 2.83316 136.316 2.78711 136.452 2.78711C136.667 2.78711 136.827 2.91071 136.931 3.15791L139.716 9.54877L142.455 3.18942C142.569 2.9204 142.733 2.78711 142.949 2.78711C143.082 2.78711 143.218 2.83073 143.351 2.91798C143.485 3.00523 143.553 3.13125 143.553 3.29605C143.553 3.37845 143.521 3.49236 143.46 3.63535L139.871 11.6209C139.685 12.0329 139.486 12.4134 139.275 12.7575C139.064 13.1041 138.807 13.378 138.509 13.5864C138.209 13.7924 137.828 13.8966 137.363 13.8966H137.162Z" fill="#7B7007"/>
<path d="M145.365 10.7705C144.982 10.7705 144.793 10.5693 144.793 10.167V3.3884C144.793 2.98609 144.984 2.78494 145.365 2.78494C145.745 2.78494 145.937 2.98609 145.937 3.3884V4.22452H146C146.247 3.8004 146.611 3.45141 147.09 3.17271C147.57 2.894 148.125 2.75586 148.753 2.75586C149.381 2.75586 149.904 2.89158 150.379 3.16544C150.854 3.4393 151.227 3.81979 151.501 4.31177C151.775 4.80132 151.911 5.37812 151.911 6.03732V10.1694C151.911 10.5718 151.719 10.7729 151.339 10.7729C150.958 10.7729 150.767 10.5718 150.767 10.1694V6.17546C150.767 5.44356 150.561 4.87645 150.149 4.47414C149.737 4.07184 149.204 3.87068 148.554 3.87068C148.048 3.87068 147.597 3.98701 147.2 4.21967C146.802 4.45233 146.492 4.76982 146.271 5.17212C146.048 5.57443 145.939 6.02278 145.939 6.51718V10.1694C145.939 10.5718 145.748 10.7729 145.367 10.7729L145.365 10.7705Z" fill="#7B7007"/>
<path d="M157.424 10.802C156.702 10.802 156.035 10.6275 155.427 10.2761C154.819 9.92467 154.334 9.44481 153.973 8.8365C153.611 8.2282 153.43 7.54234 153.43 6.77892C153.43 6.01551 153.609 5.31753 153.973 4.71407C154.334 4.11061 154.823 3.63318 155.444 3.28177C156.062 2.93035 156.755 2.75586 157.519 2.75586C158.003 2.75586 158.486 2.84068 158.966 3.01033C159.446 3.17998 159.882 3.43445 160.275 3.7689C160.667 4.10334 160.982 4.52261 161.217 5.02186C161.453 5.52111 161.574 6.10761 161.574 6.77892V10.167C161.574 10.5693 161.382 10.7705 161.002 10.7705C160.621 10.7705 160.43 10.5693 160.43 10.167V9.22185H160.367C160.078 9.65566 159.693 10.0265 159.213 10.3367C158.733 10.6469 158.137 10.802 157.424 10.802ZM157.516 9.68716C158.074 9.68716 158.571 9.56114 159.009 9.30909C159.448 9.05705 159.792 8.71048 160.047 8.27182C160.299 7.83316 160.425 7.33634 160.425 6.77892C160.425 6.22151 160.299 5.72469 160.047 5.28603C159.795 4.84737 159.448 4.50323 159.009 4.24876C158.571 3.99671 158.074 3.87068 157.516 3.87068C156.959 3.87068 156.462 3.99671 156.023 4.24876C155.584 4.5008 155.238 4.84737 154.986 5.28603C154.734 5.72469 154.608 6.22151 154.608 6.77892C154.608 7.33634 154.734 7.83316 154.986 8.27182C155.238 8.71048 155.584 9.05705 156.023 9.30909C156.462 9.56114 156.959 9.68716 157.516 9.68716Z" fill="#7B7007"/>
<path d="M163.875 10.7705C163.492 10.7705 163.303 10.5693 163.303 10.167V3.35932C163.303 3.18482 163.349 3.04426 163.443 2.94247C163.535 2.84068 163.681 2.78737 163.877 2.78737C164.074 2.78737 164.217 2.83826 164.311 2.94247C164.403 3.04668 164.449 3.18482 164.449 3.35932V4.07184H164.512C164.769 3.69134 165.118 3.37628 165.557 3.12908C165.996 2.88188 166.478 2.75828 167.004 2.75828C167.53 2.75828 168.044 2.89885 168.482 3.17513C168.921 3.45384 169.258 3.83433 169.496 4.31904H169.559C169.847 3.84403 170.235 3.46595 170.72 3.1824C171.204 2.89885 171.73 2.75586 172.298 2.75586C172.833 2.75586 173.316 2.87946 173.745 3.12666C174.174 3.37386 174.515 3.72527 174.775 4.17847C175.032 4.63167 175.162 5.16485 175.162 5.77316V10.167C175.162 10.5693 174.971 10.7705 174.59 10.7705C174.21 10.7705 174.018 10.5693 174.018 10.167V5.9113C174.018 5.2933 173.841 4.79647 173.485 4.42567C173.129 4.05487 172.661 3.86826 172.084 3.86826C171.66 3.86826 171.277 3.97247 170.93 4.17847C170.584 4.38447 170.312 4.66803 170.111 5.02913C169.91 5.39024 169.808 5.79739 169.808 6.25059V10.167C169.808 10.5693 169.617 10.7705 169.236 10.7705C168.856 10.7705 168.664 10.5693 168.664 10.167V5.9113C168.664 5.2933 168.487 4.79647 168.131 4.42567C167.775 4.05487 167.307 3.86826 166.73 3.86826C166.296 3.86826 165.911 3.97247 165.569 4.17847C165.227 4.38447 164.958 4.66803 164.757 5.02913C164.556 5.39024 164.454 5.79739 164.454 6.25059V10.167C164.454 10.5693 164.263 10.7705 163.882 10.7705H163.875Z" fill="#7B7007"/>
<path d="M177.682 1.45412C177.467 1.45412 177.285 1.38384 177.14 1.2457C176.994 1.10513 176.924 0.93306 176.924 0.72706C176.924 0.52106 176.997 0.348989 177.14 0.208424C177.285 0.0678589 177.464 0 177.682 0C177.901 0 178.08 0.0702825 178.223 0.208424C178.368 0.346565 178.439 0.52106 178.439 0.72706C178.439 0.93306 178.366 1.10513 178.223 1.2457C178.077 1.38384 177.898 1.45412 177.682 1.45412ZM177.682 10.7702C177.299 10.7702 177.11 10.569 177.11 10.1667V3.3881C177.11 2.98579 177.302 2.78464 177.682 2.78464C178.063 2.78464 178.254 2.98579 178.254 3.3881V10.1667C178.254 10.569 178.063 10.7702 177.682 10.7702Z" fill="#7B7007"/>
<path d="M183.934 10.8025C183.231 10.8025 182.577 10.6328 181.969 10.2911C181.361 9.9518 180.869 9.47679 180.49 8.86606C180.115 8.25775 179.926 7.5622 179.926 6.77697C179.926 5.99175 180.112 5.28407 180.483 4.68062C180.854 4.07716 181.341 3.60457 181.947 3.26527C182.55 2.92355 183.202 2.75391 183.905 2.75391C184.545 2.75391 185.117 2.87751 185.624 3.12471C186.13 3.37191 186.542 3.66031 186.862 3.99233C187.027 4.15713 187.109 4.31709 187.109 4.47219C187.109 4.60549 187.053 4.73393 186.939 4.85026C186.826 4.96902 186.697 5.02718 186.552 5.02718C186.469 5.02718 186.392 5.00779 186.319 4.96659C186.246 4.92539 186.154 4.85269 186.04 4.7509C185.783 4.52309 185.476 4.31951 185.119 4.14017C184.763 3.96083 184.354 3.86873 183.888 3.86873C183.394 3.86873 182.933 3.98748 182.512 4.22499C182.088 4.4625 181.748 4.79694 181.491 5.23076C181.234 5.66457 181.104 6.18078 181.104 6.7794C181.104 7.37801 181.234 7.89422 181.499 8.32803C181.763 8.76185 182.107 9.09629 182.536 9.3338C182.965 9.5713 183.425 9.69006 183.922 9.69006C184.388 9.69006 184.8 9.59796 185.161 9.41135C185.522 9.22474 185.832 9.01874 186.089 8.79335C186.295 8.61886 186.464 8.53161 186.6 8.53161C186.746 8.53161 186.874 8.58735 186.988 8.70126C187.102 8.81516 187.158 8.94361 187.158 9.08902C187.158 9.24413 187.075 9.40408 186.91 9.56888C186.59 9.88879 186.176 10.1748 185.665 10.4268C185.153 10.6789 184.579 10.8049 183.939 10.8049L183.934 10.8025Z" fill="#7B7007"/>
<path d="M130.88 25.9338C130.053 25.9338 129.321 25.7811 128.681 25.4782C128.041 25.1752 127.503 24.7608 127.065 24.2398C126.626 23.7187 126.294 23.1395 126.066 22.4997C125.838 21.8599 125.727 21.2007 125.727 20.5196C125.727 19.8386 125.838 19.1794 126.059 18.5396C126.279 17.8998 126.611 17.3206 127.05 16.7995C127.489 16.2785 128.027 15.8665 128.667 15.5611C129.307 15.2582 130.043 15.1055 130.88 15.1055C132.53 15.1055 133.861 15.7671 134.872 17.0855C134.954 17.1897 135.019 17.2866 135.066 17.3787C135.112 17.4708 135.136 17.5532 135.136 17.6259C135.136 17.781 135.068 17.9143 134.935 18.0282C134.801 18.1422 134.661 18.1979 134.518 18.1979C134.414 18.1979 134.329 18.1688 134.263 18.1131C134.195 18.0573 134.111 17.9725 134.009 17.8586C133.626 17.4151 133.194 17.037 132.71 16.722C132.225 16.4069 131.612 16.2494 130.867 16.2494C130.228 16.2494 129.665 16.3681 129.18 16.6056C128.696 16.8431 128.289 17.163 127.959 17.5654C127.629 17.9677 127.382 18.4209 127.215 18.9274C127.05 19.4339 126.968 19.955 126.968 20.4906C126.968 21.0262 127.052 21.5496 127.222 22.061C127.392 22.5724 127.641 23.0328 127.973 23.4448C128.303 23.8568 128.713 24.1864 129.205 24.4288C129.694 24.6712 130.259 24.7923 130.899 24.7923C131.415 24.7923 131.869 24.7148 132.261 24.5597C132.654 24.4046 132.993 24.2083 133.282 23.9708C133.57 23.7332 133.817 23.486 134.026 23.2267C134.14 23.0934 134.239 22.9844 134.329 22.902C134.416 22.8196 134.518 22.7784 134.632 22.7784C134.777 22.7784 134.913 22.8341 135.041 22.948C135.17 23.0619 135.235 23.1952 135.235 23.3503C135.235 23.5054 135.138 23.7114 134.942 23.9683C134.53 24.4942 133.989 24.9547 133.325 25.3449C132.659 25.7375 131.847 25.9338 130.887 25.9338H130.88Z" fill="#7B7007"/>
<path d="M140.18 25.9329C139.417 25.9329 138.726 25.7584 138.106 25.4069C137.485 25.0555 136.995 24.5757 136.634 23.9674C136.273 23.3591 136.094 22.6732 136.094 21.9098C136.094 21.1464 136.273 20.4605 136.634 19.8522C136.995 19.2439 137.485 18.764 138.106 18.4126C138.724 18.0612 139.417 17.8867 140.18 17.8867C140.944 17.8867 141.635 18.0612 142.255 18.4126C142.873 18.764 143.365 19.2439 143.726 19.8522C144.087 20.4605 144.269 21.1464 144.269 21.9098C144.269 22.6732 144.087 23.3591 143.726 23.9674C143.365 24.5757 142.876 25.0555 142.255 25.4069C141.635 25.7584 140.944 25.9329 140.18 25.9329ZM140.18 24.818C140.738 24.818 141.235 24.692 141.673 24.44C142.112 24.1879 142.456 23.8389 142.711 23.3954C142.963 22.9519 143.089 22.4575 143.089 21.9098C143.089 21.3621 142.963 20.8555 142.711 20.4169C142.459 19.9782 142.112 19.6341 141.673 19.3796C141.235 19.1276 140.738 19.0015 140.18 19.0015C139.623 19.0015 139.126 19.1276 138.687 19.3796C138.249 19.6317 137.902 19.9782 137.65 20.4169C137.398 20.8555 137.272 21.3524 137.272 21.9098C137.272 22.4672 137.398 22.9519 137.65 23.3954C137.902 23.8389 138.249 24.1879 138.687 24.44C139.126 24.692 139.623 24.818 140.18 24.818Z" fill="#7B7007"/>
<path d="M149.08 25.9345C148.399 25.9345 147.798 25.794 147.277 25.5177C146.756 25.239 146.351 24.8464 146.063 24.3423C145.774 23.8382 145.629 23.2493 145.629 22.578V18.5234C145.629 18.1211 145.82 17.9199 146.201 17.9199C146.581 17.9199 146.773 18.1211 146.773 18.5234V22.4544C146.773 23.2396 146.986 23.8285 147.415 24.226C147.844 24.6234 148.397 24.8221 149.078 24.8221C149.759 24.8221 150.318 24.6234 150.757 24.226C151.196 23.8285 151.414 23.2372 151.414 22.4544V18.5234C151.414 18.1211 151.605 17.9199 151.986 17.9199C152.366 17.9199 152.558 18.1211 152.558 18.5234V22.578C152.558 23.2493 152.41 23.8358 152.117 24.3423C151.823 24.8488 151.414 25.239 150.895 25.5177C150.374 25.7964 149.768 25.9345 149.078 25.9345H149.08Z" fill="#7B7007"/>
<path d="M154.931 28.9986C154.548 28.9986 154.359 28.7975 154.359 28.3952V21.9098C154.359 21.2385 154.478 20.6544 154.716 20.1527C154.953 19.6535 155.268 19.2342 155.659 18.8998C156.051 18.5653 156.487 18.3108 156.967 18.1412C157.447 17.9715 157.93 17.8867 158.414 17.8867C159.178 17.8867 159.869 18.0612 160.489 18.4126C161.107 18.764 161.599 19.2415 161.96 19.8449C162.322 20.4484 162.501 21.1367 162.501 21.9098C162.501 22.6829 162.319 23.3591 161.96 23.9674C161.599 24.5757 161.117 25.0555 160.513 25.4069C159.91 25.7584 159.241 25.9328 158.509 25.9328C157.777 25.9328 157.2 25.7777 156.72 25.4675C156.24 25.1573 155.855 24.7865 155.566 24.3527H155.503V28.3927C155.503 28.795 155.312 28.9962 154.931 28.9962V28.9986ZM158.414 24.8204C158.972 24.8204 159.469 24.6944 159.907 24.4424C160.346 24.1903 160.693 23.8438 160.945 23.4051C161.197 22.9664 161.323 22.4696 161.323 21.9122C161.323 21.3548 161.197 20.858 160.945 20.4193C160.693 19.9807 160.346 19.6365 159.907 19.382C159.469 19.13 158.972 19.004 158.414 19.004C157.857 19.004 157.372 19.13 156.929 19.382C156.485 19.6341 156.136 19.9807 155.884 20.4193C155.632 20.858 155.506 21.3548 155.506 21.9122C155.506 22.4696 155.632 22.9664 155.884 23.4051C156.136 23.8438 156.485 24.1903 156.929 24.4424C157.372 24.6944 157.867 24.8204 158.414 24.8204Z" fill="#7B7007"/>
<path d="M167.823 25.9329C167.059 25.9329 166.369 25.7584 165.748 25.4069C165.13 25.0555 164.638 24.5757 164.277 23.9674C163.916 23.3591 163.736 22.6732 163.736 21.9098C163.736 21.1464 163.916 20.4605 164.277 19.8522C164.638 19.2439 165.128 18.764 165.748 18.4126C166.366 18.0612 167.059 17.8867 167.823 17.8867C168.586 17.8867 169.277 18.0612 169.898 18.4126C170.516 18.764 171.008 19.2439 171.369 19.8522C171.73 20.4605 171.909 21.1464 171.909 21.9098C171.909 22.6732 171.728 23.3591 171.369 23.9674C171.008 24.5757 170.518 25.0555 169.898 25.4069C169.28 25.7584 168.586 25.9329 167.823 25.9329ZM167.823 24.818C168.38 24.818 168.877 24.692 169.316 24.44C169.755 24.1879 170.099 23.8389 170.353 23.3954C170.605 22.9519 170.731 22.4575 170.731 21.9098C170.731 21.3621 170.605 20.8555 170.353 20.4169C170.101 19.9782 169.755 19.6341 169.316 19.3796C168.877 19.1276 168.38 19.0015 167.823 19.0015C167.265 19.0015 166.769 19.1276 166.33 19.3796C165.891 19.6317 165.545 19.9782 165.292 20.4169C165.04 20.8555 164.914 21.3524 164.914 21.9098C164.914 22.4672 165.04 22.9519 165.292 23.3954C165.545 23.8389 165.891 24.1879 166.33 24.44C166.769 24.692 167.265 24.818 167.823 24.818Z" fill="#7B7007"/>
<path d="M174.152 25.9013C173.769 25.9013 173.58 25.7002 173.58 25.2979V18.5193C173.58 18.117 173.772 17.9158 174.152 17.9158C174.533 17.9158 174.724 18.117 174.724 18.5193V19.3554H174.787C175.034 18.9313 175.398 18.5823 175.878 18.3036C176.357 18.0249 176.912 17.8867 177.543 17.8867C178.173 17.8867 178.694 18.0224 179.166 18.2963C179.641 18.5702 180.015 18.9507 180.288 19.4426C180.562 19.9322 180.698 20.509 180.698 21.1682V25.3003C180.698 25.7026 180.507 25.9038 180.126 25.9038C179.746 25.9038 179.554 25.7026 179.554 25.3003V21.3087C179.554 20.5768 179.348 20.0097 178.936 19.6074C178.524 19.2051 177.991 19.004 177.341 19.004C176.835 19.004 176.384 19.1203 175.987 19.353C175.589 19.5856 175.279 19.9031 175.058 20.3054C174.835 20.7077 174.726 21.1561 174.726 21.6505V25.3027C174.726 25.705 174.535 25.9062 174.154 25.9062L174.152 25.9013Z" fill="#7B7007"/>
<path d="M185.466 25.9333C184.848 25.9333 184.284 25.834 183.772 25.6401C183.261 25.4438 182.846 25.2063 182.527 24.9276C182.466 24.8767 182.408 24.8136 182.357 24.7409C182.306 24.6682 182.279 24.581 182.279 24.4768C182.279 24.3314 182.333 24.2029 182.442 24.089C182.551 23.9751 182.672 23.9194 182.805 23.9194C182.939 23.9194 183.111 23.9969 183.317 24.152C183.586 24.3483 183.903 24.518 184.269 24.6634C184.635 24.8088 185.057 24.8791 185.529 24.8791C185.859 24.8791 186.174 24.8355 186.474 24.7482C186.773 24.661 187.02 24.5228 187.209 24.3386C187.4 24.152 187.495 23.9097 187.495 23.6116C187.495 23.219 187.342 22.9354 187.039 22.7609C186.734 22.5864 186.382 22.4677 185.98 22.4047L184.759 22.218C184.388 22.155 184.024 22.0484 183.668 21.8933C183.312 21.7382 183.021 21.5176 182.793 21.2268C182.565 20.9384 182.451 20.5725 182.451 20.129C182.451 19.6346 182.592 19.2201 182.878 18.8905C183.161 18.5609 183.535 18.3113 184 18.1392C184.465 17.9672 184.955 17.8848 185.471 17.8848C186.029 17.8848 186.528 17.9672 186.971 18.132C187.415 18.2968 187.786 18.4979 188.086 18.7354C188.19 18.8081 188.268 18.8808 188.319 18.9511C188.37 19.0238 188.396 19.1159 188.396 19.2298C188.396 19.3631 188.345 19.4916 188.241 19.6079C188.137 19.7267 188.009 19.7848 187.853 19.7848C187.781 19.7848 187.708 19.7654 187.638 19.7218C187.565 19.6806 187.468 19.6249 187.344 19.5522C187.066 19.3777 186.775 19.2298 186.47 19.1111C186.164 18.9923 185.813 18.9342 185.411 18.9342C185.132 18.9342 184.853 18.9729 184.574 19.0505C184.296 19.128 184.065 19.2492 183.886 19.414C183.704 19.5788 183.615 19.7969 183.615 20.0635C183.615 20.301 183.692 20.4949 183.847 20.6427C184.002 20.793 184.191 20.9069 184.412 20.982C184.635 21.0596 184.848 21.1129 185.054 21.1444L186.276 21.331C186.719 21.3916 187.119 21.5152 187.475 21.6946C187.832 21.8763 188.118 22.1187 188.333 22.4216C188.549 22.727 188.658 23.1002 188.658 23.5437C188.658 24.0793 188.505 24.5228 188.202 24.8742C187.897 25.2256 187.504 25.4874 187.02 25.6643C186.535 25.8388 186.019 25.9285 185.471 25.9285L185.466 25.9333Z" fill="#7B7007"/>
<path d="M112.792 13.3219C112.792 11.1262 114.571 9.34491 116.77 9.34491V5.85745C116.77 4.76201 115.882 3.875 114.787 3.875H110.126V7.22432C110.126 7.60724 109.816 7.91503 109.435 7.91503C109.055 7.91503 108.744 7.60482 108.744 7.22432V3.875H85.9241C84.8285 3.875 83.9414 4.76444 83.9414 5.85987V9.34734C86.1374 9.34734 87.9165 11.1262 87.9165 13.3219C87.9165 15.5177 86.1374 17.2989 83.9414 17.2989V20.7864C83.9414 21.8819 84.8285 22.7689 85.9241 22.7689H108.744V19.4195C108.744 19.0366 109.055 18.7288 109.435 18.7288C109.816 18.7288 110.126 19.039 110.126 19.4195V22.7689H114.787C115.882 22.7689 116.77 21.8819 116.77 20.7864V17.2989C114.574 17.2989 112.792 15.5201 112.792 13.3244V13.3219ZM110.123 15.1105C110.123 15.4934 109.813 15.8012 109.433 15.8012C109.052 15.8012 108.742 15.491 108.742 15.1105V11.5334C108.742 11.1504 109.052 10.8427 109.433 10.8427C109.813 10.8427 110.123 11.1529 110.123 11.5334V15.1105Z" fill="url(#paint0_linear_4062_14586)"/>
<path d="M95.5512 16.0877C95.3307 16.0877 95.1125 15.9811 94.9792 15.7823C94.7683 15.4673 94.8532 15.0407 95.1683 14.8275L104.834 8.35421C105.15 8.14336 105.576 8.22818 105.789 8.54324C106 8.8583 105.915 9.28484 105.6 9.49811L95.9342 15.9714C95.8179 16.0513 95.6846 16.0877 95.5512 16.0877Z" fill="white"/>
<path d="M93.1563 20.208C92.9479 20.208 92.7371 20.1886 92.5286 20.145C91.6901 19.9802 90.9679 19.4979 90.4929 18.7878C89.5113 17.3215 89.9064 15.3318 91.3702 14.3503C92.8364 13.3688 94.8262 13.7638 95.8077 15.2276C96.2827 15.9377 96.4548 16.7908 96.2875 17.6269C96.1203 18.463 95.6405 19.1877 94.9304 19.6627C94.3972 20.0189 93.784 20.2056 93.1563 20.2056V20.208ZM92.136 15.4942C91.2999 16.054 91.0769 17.1883 91.6368 18.0244C91.9082 18.4291 92.3202 18.703 92.7977 18.7975C93.2751 18.892 93.7622 18.7975 94.1669 18.5236C94.5717 18.2522 94.8455 17.8402 94.9401 17.3627C95.0346 16.8853 94.9376 16.3982 94.6662 15.9959C94.1064 15.1598 92.9722 14.9368 92.136 15.4966V15.4942Z" fill="white"/>
<path d="M105.382 18.0915C105.256 18.0915 105.13 18.0575 105.016 17.9848L95.1852 11.7636C94.8653 11.56 94.7683 11.1359 94.9719 10.8136C95.1755 10.4913 95.5997 10.3992 95.9196 10.6003L105.751 16.8215C106.071 17.0251 106.168 17.4492 105.964 17.7716C105.833 17.9776 105.61 18.0915 105.382 18.0915Z" fill="white"/>
<path d="M93.1057 12.8354C92.5216 12.8354 91.9303 12.6754 91.3995 12.341C89.909 11.3982 89.4631 9.41821 90.4083 7.92773C91.351 6.43726 93.3311 5.99376 94.8215 6.93651C96.312 7.87926 96.7579 9.85929 95.8128 11.3498C95.2045 12.3095 94.1648 12.8378 93.1057 12.8378V12.8354ZM93.113 7.81625C92.5095 7.81625 91.9157 8.11677 91.5692 8.66449C91.0311 9.51273 91.2856 10.6421 92.1338 11.1801C92.9821 11.7157 94.1114 11.4637 94.6495 10.6154C95.1875 9.7672 94.933 8.63783 94.0848 8.09981C93.7818 7.90835 93.445 7.81868 93.113 7.81868V7.81625Z" fill="white"/>
<path d="M114.785 23.7234H110.125V25.0103H114.785C115.881 25.0103 116.768 24.1232 116.768 23.0278V22.3613C116.768 22.3613 116.768 23.7258 114.785 23.7258V23.7234Z" fill="#7B7007"/>
<path d="M83.9375 22.3598V23.0263C83.9375 24.1218 84.8246 25.0088 85.9202 25.0088H108.74V23.7219H85.9202C83.9375 23.7219 83.9375 22.3574 83.9375 22.3574V22.3598Z" fill="#7B7007"/>
<defs>
<linearGradient id="paint0_linear_4062_14586" x1="100.351" y1="22.5192" x2="100.351" y2="5.63206" gradientUnits="userSpaceOnUse">
<stop stop-color="#A89914"/>
<stop offset="1" stop-color="#E4CC00"/>
</linearGradient>
</defs>
</svg>
