<svg width="195" height="32" viewBox="0 0 195 32" fill="none" xmlns="http://www.w3.org/2000/svg">
<path d="M37.7547 11.2914C40.5378 11.2914 42.7764 13.5254 42.7764 16.3027C42.7764 19.0801 40.5378 21.314 37.7547 21.314C34.9716 21.314 32.7329 19.0801 32.7329 16.3027C32.7329 13.5858 35.0321 11.2914 37.7547 11.2914ZM37.7547 9.35938C33.8825 9.35938 30.7969 12.499 30.7969 16.3027C30.7969 20.1669 33.943 23.2461 37.7547 23.2461C41.6269 23.2461 44.7125 20.1065 44.7125 16.3027C44.773 12.499 41.6269 9.35938 37.7547 9.35938Z" fill="#595A5A"/>
<path d="M13.9156 16.3633C13.9156 12.4992 10.7695 9.41992 6.95779 9.41992C3.08563 9.41992 0 12.5595 0 16.3633C0 20.2275 3.14613 23.3067 6.95779 23.3067C8.95438 23.3067 10.7089 22.4614 11.9795 21.1935V22.5822C11.9795 23.1256 12.403 23.5483 12.9476 23.5483C13.4921 23.5483 13.9156 23.1256 13.9156 22.5822V16.6652V16.6048C13.9156 16.4841 13.9156 16.4237 13.9156 16.3633ZM6.95779 21.3747C4.17467 21.3747 1.93605 19.1407 1.93605 16.3633C1.93605 13.586 4.17467 11.352 6.95779 11.352C9.74091 11.352 11.9795 13.586 11.9795 16.3633C11.9795 19.0803 9.74091 21.3747 6.95779 21.3747Z" fill="#595A5A"/>
<path d="M75.5054 16.2424C75.4449 12.4386 72.3593 9.35938 68.5476 9.35938C64.6755 9.35938 61.5898 12.499 61.5898 16.3028C61.5898 20.1669 64.736 23.2461 68.5476 23.2461C70.5442 23.2461 72.2988 22.4009 73.5694 21.0726V22.4612C73.5694 23.0046 73.9929 23.4273 74.5374 23.4273C75.0819 23.4273 75.5054 23.0046 75.5054 22.4612V16.3028C75.5659 16.3631 75.5659 16.3028 75.5054 16.2424ZM68.5476 21.3744C65.7645 21.3744 63.526 19.1405 63.526 16.3631C63.526 13.5858 65.7645 11.3518 68.5476 11.3518C71.3308 11.3518 73.5694 13.5858 73.5694 16.3631C73.5694 19.0801 71.3308 21.3744 68.5476 21.3744Z" fill="#595A5A"/>
<path d="M60.1401 15.9406C60.1401 15.8803 60.1401 15.8199 60.1401 15.7595V4.10667C60.1401 3.56327 59.7166 3.14062 59.172 3.14062C58.6275 3.14062 58.204 3.56327 58.204 4.10667V11.4727C56.9335 10.1444 55.179 9.35951 53.1824 9.35951C49.3102 9.35951 46.2246 12.4991 46.2246 16.3029C46.2246 20.1671 49.3707 23.2463 53.1824 23.2463C57.0545 23.2463 60.1401 20.1067 60.1401 16.3029C60.1401 16.1822 60.1401 16.0614 60.1401 15.9406ZM53.1824 21.3746C50.3993 21.3746 48.1607 19.1406 48.1607 16.3633C48.1607 13.5859 50.3993 11.352 53.1824 11.352C55.9655 11.352 58.204 13.5859 58.204 16.3633C58.204 19.0803 55.9655 21.3746 53.1824 21.3746Z" fill="#595A5A"/>
<path d="M29.3432 16.3633C29.3432 12.4992 26.1971 9.41992 22.3855 9.41992C18.5133 9.41992 15.4277 12.5595 15.4277 16.3633C15.4277 20.2275 18.5738 23.3067 22.3855 23.3067C24.3821 23.3067 26.1366 22.4614 27.4071 21.1935V22.0992C27.4071 24.9369 25.1685 26.9294 21.9619 26.9294C20.5704 26.9294 19.4209 26.6275 18.5738 25.9634C18.1503 25.6615 17.5453 25.7218 17.2428 26.1445C16.9403 26.5671 17.0007 27.1709 17.4243 27.5331C18.6343 28.4388 20.1469 28.9218 22.0225 28.9218C26.3181 28.9218 29.4037 26.0841 29.4037 22.1596V16.6652C29.4037 16.6652 29.4037 16.6652 29.4037 16.6048C29.3432 16.4841 29.3432 16.4237 29.3432 16.3633ZM22.3855 21.3747C19.6024 21.3747 17.3638 19.1407 17.3638 16.3633C17.3638 13.586 19.6024 11.352 22.3855 11.352C25.1686 11.352 27.4071 13.586 27.4071 16.3633C27.4071 19.0803 25.1686 21.3747 22.3855 21.3747Z" fill="#595A5A"/>
<path d="M116.769 16C116.769 24.8151 109.57 32 100.736 32C91.9029 32 84.7031 24.8151 84.7031 16C84.7031 7.18491 91.9029 0 100.736 0C109.63 0 116.769 7.18491 116.769 16Z" fill="#E9264C"/>
<path d="M92.869 16.6024C91.78 17.2062 91.3565 18.5345 91.901 19.6816L92.143 20.1043C92.6875 21.1307 93.9581 21.6137 95.0471 21.1307L96.6202 24.0891C96.7412 24.3306 96.9832 24.391 97.1647 24.2703L98.4957 23.5458C98.7377 23.425 98.7983 23.1835 98.6773 23.0023L97.1042 20.0439L97.3462 19.9231L94.9866 15.5156L92.869 16.6024Z" fill="white"/>
<path d="M101.281 9.29688C101.16 9.29688 100.979 9.35724 100.918 9.41762L96.1387 15.2742L98.0747 18.9573L105.638 18.3535C105.88 18.3535 106.061 18.112 106.001 17.8705C106.001 17.8101 106.001 17.7497 105.94 17.6893L101.584 9.478C101.584 9.41762 101.463 9.35725 101.281 9.29688Z" fill="white"/>
<path d="M108.542 10.2039L106.182 11.4718C105.759 11.7133 105.577 12.2567 105.819 12.6794C106.061 13.102 106.606 13.2831 107.029 13.0416L109.389 11.7737C109.812 11.5322 109.994 10.9888 109.752 10.5661C109.51 10.1435 108.965 9.96237 108.542 10.2039Z" fill="white"/>
<path d="M110.052 15.6342L107.692 14.9097C107.208 14.7889 106.724 15.0304 106.603 15.5135C106.482 15.9965 106.724 16.4795 107.208 16.6003L109.568 17.3248C110.052 17.4456 110.536 17.204 110.657 16.721C110.778 16.238 110.475 15.755 110.052 15.6342Z" fill="white"/>
<path d="M105.092 6.33741C104.608 6.21666 104.124 6.45817 104.003 6.94119L103.277 9.29589C103.156 9.77891 103.398 10.2619 103.882 10.3827C104.366 10.5034 104.85 10.2619 104.971 9.7789L105.697 7.4242C105.818 6.94118 105.576 6.45817 105.092 6.33741Z" fill="white"/>
<path d="M123.668 21.373C123.305 21.373 123.123 21.1918 123.123 20.8296V12.1352C123.123 11.7729 123.305 11.5918 123.668 11.5918H126.451C126.995 11.5918 127.54 11.7126 127.963 11.9541C128.447 12.1956 128.81 12.5578 129.113 13.0409C129.415 13.5239 129.536 14.0673 129.536 14.7918C129.536 15.5163 129.415 16.0597 129.113 16.5428C128.81 17.0258 128.447 17.388 127.963 17.6295C127.479 17.8711 126.995 17.9918 126.451 17.9918H124.212V20.8899C124.212 21.1918 124.031 21.373 123.668 21.373ZM126.39 12.6182H124.212V16.905H126.39C126.753 16.905 127.116 16.8446 127.419 16.6635C127.721 16.4824 127.963 16.2409 128.205 15.939C128.387 15.6371 128.508 15.2145 128.508 14.7314C128.508 14.2484 128.387 13.8258 128.205 13.5239C128.024 13.222 127.721 12.9805 127.419 12.7993C127.116 12.6786 126.753 12.6182 126.39 12.6182Z" fill="#868789"/>
<path d="M131.593 21.372C131.23 21.372 131.109 21.1909 131.109 20.8287V14.6098C131.109 14.2475 131.291 14.0664 131.593 14.0664C131.896 14.0664 132.077 14.2475 132.077 14.6098V15.3343H132.138C132.319 14.9721 132.561 14.6702 132.924 14.4287C133.287 14.1872 133.65 14.0664 134.134 14.0664C134.316 14.0664 134.497 14.0664 134.618 14.1268C134.739 14.1872 134.921 14.1872 135.042 14.3079C135.284 14.4287 135.405 14.6098 135.405 14.7909C135.405 14.9117 135.344 15.0324 135.284 15.1532C135.223 15.2739 135.102 15.3343 134.921 15.3343C134.86 15.3343 134.8 15.3343 134.739 15.2739C134.679 15.2739 134.618 15.2136 134.558 15.2136C134.497 15.2136 134.376 15.1532 134.316 15.1532C134.255 15.1532 134.134 15.1532 134.013 15.1532C133.65 15.1532 133.348 15.2739 133.045 15.4551C132.743 15.6966 132.561 15.9381 132.38 16.3607C132.198 16.723 132.138 17.1456 132.138 17.6287V20.889C132.077 21.1909 131.956 21.372 131.593 21.372Z" fill="#868789"/>
<path d="M139.64 21.4324C138.974 21.4324 138.369 21.2513 137.825 20.9494C137.28 20.6475 136.857 20.1645 136.494 19.6211C136.191 19.0777 136.01 18.4136 136.01 17.7494C136.01 17.0249 136.191 16.4211 136.494 15.8777C136.796 15.3343 137.22 14.8513 137.825 14.5494C138.369 14.2475 138.974 14.0664 139.64 14.0664C140.305 14.0664 140.91 14.2475 141.455 14.5494C141.999 14.8513 142.423 15.3343 142.786 15.8777C143.089 16.4211 143.27 17.0853 143.27 17.7494C143.27 18.4739 143.089 19.0777 142.786 19.6211C142.483 20.1645 142.06 20.6475 141.455 20.9494C140.91 21.2513 140.305 21.4324 139.64 21.4324ZM139.64 20.406C140.124 20.406 140.547 20.2853 140.971 20.0437C141.394 19.8022 141.697 19.5003 141.878 19.0777C142.12 18.6551 142.241 18.2324 142.241 17.689C142.241 17.206 142.12 16.723 141.878 16.3004C141.636 15.8777 141.334 15.5758 140.971 15.3343C140.608 15.0928 140.124 14.9721 139.64 14.9721C139.156 14.9721 138.732 15.0928 138.309 15.3343C137.946 15.5758 137.583 15.8777 137.401 16.3004C137.159 16.723 137.038 17.1456 137.038 17.689C137.038 18.1721 137.159 18.6551 137.401 19.0777C137.643 19.5003 137.946 19.8022 138.309 20.0437C138.672 20.2853 139.156 20.406 139.64 20.406Z" fill="#868789"/>
<path d="M145.207 21.3739C144.844 21.3739 144.723 21.1928 144.723 20.8305V14.5512C144.723 14.3701 144.783 14.2493 144.844 14.189C144.904 14.0682 145.025 14.0682 145.207 14.0682C145.388 14.0682 145.509 14.1286 145.57 14.189C145.63 14.3097 145.691 14.4305 145.691 14.5512V15.2154H145.751C145.993 14.8531 146.296 14.5512 146.659 14.3701C147.022 14.1286 147.506 14.0078 147.929 14.0078C148.413 14.0078 148.837 14.1286 149.26 14.3701C149.623 14.6116 149.926 14.9739 150.168 15.3965H150.228C150.47 14.9739 150.833 14.6116 151.257 14.3701C151.68 14.1286 152.164 14.0078 152.648 14.0078C153.132 14.0078 153.556 14.1286 153.919 14.3701C154.282 14.6116 154.584 14.9135 154.826 15.3361C155.068 15.7588 155.189 16.2418 155.189 16.7852V20.8305C155.189 21.1928 155.008 21.3739 154.705 21.3739C154.403 21.3739 154.221 21.1928 154.221 20.8305V16.9059C154.221 16.3626 154.04 15.8795 153.737 15.5173C153.435 15.155 153.011 15.0342 152.467 15.0342C152.104 15.0342 151.741 15.155 151.438 15.3361C151.136 15.5173 150.894 15.7588 150.712 16.121C150.531 16.4833 150.47 16.8456 150.47 17.2682V20.8909C150.47 21.2531 150.289 21.4343 149.986 21.4343C149.684 21.4343 149.502 21.2531 149.502 20.8909V16.9663C149.502 16.4229 149.321 15.9399 149.018 15.5776C148.716 15.2154 148.292 15.0946 147.748 15.0946C147.385 15.0946 147.022 15.2154 146.719 15.3965C146.417 15.5776 146.175 15.8191 145.993 16.1814C145.812 16.5437 145.751 16.9059 145.751 17.3286V20.9512C145.691 21.1927 145.509 21.3739 145.207 21.3739Z" fill="#868789"/>
<path d="M160.152 21.4324C159.486 21.4324 158.881 21.2513 158.337 20.9494C157.792 20.6475 157.369 20.1645 157.006 19.6211C156.703 19.0777 156.521 18.4136 156.521 17.7494C156.521 17.0249 156.703 16.4211 157.006 15.8777C157.308 15.3343 157.732 14.8513 158.337 14.5494C158.881 14.2475 159.486 14.0664 160.152 14.0664C160.817 14.0664 161.422 14.2475 161.967 14.5494C162.511 14.8513 162.935 15.3343 163.298 15.8777C163.6 16.4211 163.782 17.0853 163.782 17.7494C163.782 18.4739 163.6 19.0777 163.298 19.6211C162.995 20.1645 162.572 20.6475 161.967 20.9494C161.422 21.2513 160.817 21.4324 160.152 21.4324ZM160.152 20.406C160.636 20.406 161.059 20.2853 161.483 20.0437C161.906 19.8022 162.209 19.5003 162.39 19.0777C162.632 18.6551 162.753 18.2324 162.753 17.689C162.753 17.206 162.632 16.723 162.39 16.3004C162.148 15.8777 161.846 15.5758 161.483 15.3343C161.12 15.0928 160.636 14.9721 160.152 14.9721C159.668 14.9721 159.244 15.0928 158.821 15.3343C158.458 15.5758 158.095 15.8777 157.913 16.3004C157.671 16.723 157.55 17.1456 157.55 17.689C157.55 18.1721 157.671 18.6551 157.913 19.0777C158.155 19.5003 158.458 19.8022 158.821 20.0437C159.184 20.2853 159.607 20.406 160.152 20.406Z" fill="#868789"/>
<path d="M167.833 21.4322C167.228 21.4322 166.684 21.2511 166.26 20.8285C165.837 20.4058 165.655 19.8624 165.655 19.0775V15.0926H164.869C164.506 15.0926 164.324 14.9115 164.324 14.6096C164.324 14.3077 164.506 14.1266 164.869 14.1266H165.655V12.436C165.655 12.0737 165.837 11.8926 166.139 11.8926C166.442 11.8926 166.623 12.0737 166.623 12.436V14.1266H168.922C169.285 14.1266 169.467 14.3077 169.467 14.6096C169.467 14.9115 169.285 15.0926 168.922 15.0926H166.623V18.8964C166.623 19.4398 166.744 19.802 166.986 20.0435C167.228 20.2851 167.531 20.4058 167.833 20.4058C168.015 20.4058 168.136 20.4058 168.317 20.3454C168.438 20.2851 168.62 20.2247 168.741 20.1643C168.801 20.1039 168.862 20.1039 168.922 20.1039C168.983 20.1039 169.043 20.1039 169.104 20.1039C169.225 20.1039 169.346 20.1643 169.406 20.285C169.467 20.4058 169.527 20.5266 169.527 20.6473C169.527 20.8285 169.406 21.0096 169.225 21.1304C168.862 21.2511 168.378 21.4322 167.833 21.4322Z" fill="#868789"/>
<path d="M171.101 12.799C170.92 12.799 170.738 12.7386 170.617 12.6179C170.496 12.4971 170.436 12.316 170.436 12.1348C170.436 11.9537 170.496 11.7726 170.617 11.6518C170.738 11.5311 170.92 11.4707 171.101 11.4707C171.283 11.4707 171.464 11.5311 171.585 11.6518C171.706 11.7726 171.767 11.9537 171.767 12.1348C171.767 12.316 171.706 12.4971 171.585 12.6179C171.464 12.7386 171.283 12.799 171.101 12.799ZM171.101 21.3726C170.738 21.3726 170.617 21.1915 170.617 20.8292V14.6103C170.617 14.2481 170.799 14.0669 171.101 14.0669C171.404 14.0669 171.585 14.2481 171.585 14.6103V20.8292C171.585 21.1915 171.464 21.3726 171.101 21.3726Z" fill="#868789"/>
<path d="M176.667 21.4324C176.002 21.4324 175.397 21.2513 174.852 20.9494C174.308 20.6475 173.884 20.1645 173.521 19.6211C173.219 19.0777 173.037 18.4136 173.037 17.7494C173.037 17.0249 173.219 16.4211 173.521 15.8777C173.824 15.3343 174.247 14.8513 174.852 14.5494C175.397 14.2475 176.002 14.0664 176.667 14.0664C177.333 14.0664 177.938 14.2475 178.482 14.5494C179.027 14.8513 179.45 15.3343 179.813 15.8777C180.116 16.4211 180.298 17.0853 180.298 17.7494C180.298 18.4739 180.116 19.0777 179.813 19.6211C179.511 20.1645 179.087 20.6475 178.482 20.9494C177.938 21.2513 177.333 21.4324 176.667 21.4324ZM176.667 20.406C177.151 20.406 177.575 20.2853 177.998 20.0437C178.422 19.8022 178.724 19.5003 178.906 19.0777C179.148 18.6551 179.269 18.2324 179.269 17.689C179.269 17.206 179.148 16.723 178.906 16.3004C178.664 15.8777 178.361 15.5758 177.998 15.3343C177.635 15.0928 177.151 14.9721 176.667 14.9721C176.183 14.9721 175.76 15.0928 175.336 15.3343C174.973 15.5758 174.61 15.8777 174.429 16.3004C174.187 16.723 174.066 17.1456 174.066 17.689C174.066 18.1721 174.187 18.6551 174.429 19.0777C174.671 19.5003 174.973 19.8022 175.336 20.0437C175.699 20.2853 176.183 20.406 176.667 20.406Z" fill="#868789"/>
<path d="M182.234 21.372C181.871 21.372 181.75 21.1909 181.75 20.8287V14.6098C181.75 14.2475 181.931 14.0664 182.234 14.0664C182.536 14.0664 182.718 14.2475 182.718 14.6098V15.3947H182.779C183.021 15.0324 183.323 14.6702 183.747 14.4287C184.17 14.1872 184.654 14.0664 185.199 14.0664C185.743 14.0664 186.227 14.1872 186.651 14.4287C187.074 14.6702 187.377 15.0324 187.619 15.4551C187.861 15.8777 187.982 16.4211 187.982 17.0249V20.8287C187.982 21.1909 187.8 21.372 187.498 21.372C187.195 21.372 187.014 21.1909 187.014 20.8287V17.1456C187.014 16.4815 186.832 15.9381 186.469 15.5758C186.106 15.2136 185.622 15.0324 185.078 15.0324C184.654 15.0324 184.231 15.1532 183.868 15.3343C183.505 15.5758 183.263 15.8173 183.021 16.24C182.839 16.6023 182.718 17.0249 182.718 17.5079V20.889C182.718 21.1909 182.536 21.372 182.234 21.372Z" fill="#868789"/>
<path d="M192.217 21.4324C191.672 21.4324 191.188 21.3117 190.704 21.1909C190.22 21.0702 189.857 20.7683 189.615 20.5268C189.555 20.4664 189.494 20.406 189.494 20.3456C189.434 20.2853 189.434 20.2249 189.434 20.1041C189.434 19.9834 189.494 19.8626 189.555 19.7419C189.676 19.6211 189.736 19.5607 189.857 19.5607C189.978 19.5607 190.099 19.6211 190.341 19.8022C190.583 19.9834 190.886 20.1645 191.188 20.2852C191.491 20.406 191.914 20.4664 192.338 20.4664C192.64 20.4664 192.882 20.406 193.185 20.3456C193.427 20.2853 193.669 20.1645 193.85 19.9834C194.032 19.8022 194.092 19.5607 194.092 19.3192C194.092 18.957 193.971 18.7154 193.669 18.5343C193.427 18.3532 193.064 18.2928 192.701 18.2324L191.612 18.0513C191.309 17.9909 190.946 17.8702 190.644 17.7494C190.341 17.6287 190.039 17.3872 189.857 17.1456C189.676 16.9041 189.555 16.5419 189.555 16.1192C189.555 15.6362 189.676 15.2739 189.918 14.9721C190.16 14.6702 190.523 14.4287 190.886 14.3079C191.249 14.1872 191.733 14.0664 192.217 14.0664C192.701 14.0664 193.185 14.1268 193.548 14.3079C193.911 14.489 194.274 14.6702 194.516 14.8513C194.637 14.9117 194.697 14.9721 194.697 15.0324C194.758 15.0928 194.758 15.2136 194.758 15.2739C194.758 15.3947 194.697 15.5155 194.637 15.6362C194.576 15.757 194.455 15.8173 194.274 15.8173C194.213 15.8173 194.153 15.8173 194.092 15.757C194.032 15.6966 193.971 15.6966 193.85 15.5758C193.608 15.3947 193.366 15.2739 193.064 15.1532C192.822 15.0324 192.459 14.9721 192.096 14.9721C191.854 14.9721 191.612 15.0324 191.37 15.0928C191.128 15.1532 190.946 15.2739 190.765 15.4551C190.583 15.6362 190.523 15.8173 190.523 16.0588C190.523 16.3004 190.583 16.4815 190.704 16.6023C190.825 16.723 191.007 16.8438 191.188 16.9041C191.37 16.9645 191.551 17.0249 191.733 17.0249L192.822 17.206C193.245 17.2664 193.548 17.3871 193.911 17.5683C194.213 17.7494 194.455 17.9305 194.697 18.2324C194.879 18.5343 195 18.8362 195 19.2588C195 19.7419 194.879 20.1645 194.576 20.4664C194.274 20.7683 193.971 21.0098 193.548 21.1909C193.124 21.372 192.701 21.4324 192.217 21.4324Z" fill="#868789"/>
</svg>
