<svg width="196" height="32" viewBox="0 0 196 32" fill="none" xmlns="http://www.w3.org/2000/svg">
<path d="M37.4333 11.1694C40.1797 11.1694 42.3887 13.3783 42.3887 16.1246C42.3887 18.8709 40.1797 21.0798 37.4333 21.0798C34.687 21.0798 32.478 18.8709 32.478 16.1246C32.478 13.3783 34.687 11.1694 37.4333 11.1694ZM37.4333 9.19922C33.6124 9.19922 30.5078 12.3037 30.5078 16.1246C30.5078 19.9455 33.6124 23.05 37.4333 23.05C41.2543 23.05 44.3589 19.9455 44.3589 16.1246C44.3589 12.3037 41.2543 9.19922 37.4333 9.19922Z" fill="#595A5A"/>
<path d="M13.8511 16.1246C13.8511 12.3037 10.7465 9.19922 6.92553 9.19922C3.10454 9.19922 0 12.3037 0 16.1246C0 19.9455 3.10454 23.05 6.92553 23.05C8.89573 23.05 10.6271 22.2142 11.8809 20.9007V22.2739C11.8809 22.8112 12.2988 23.2291 12.8361 23.2291C13.3735 23.2291 13.7914 22.8112 13.7914 22.2739V16.4231V16.3634C13.8511 16.244 13.8511 16.1843 13.8511 16.1246ZM6.92553 21.0798C4.17919 21.0798 1.97015 18.8709 1.97015 16.1246C1.97015 13.3783 4.17919 11.1694 6.92553 11.1694C9.67186 11.1694 11.8809 13.3783 11.8809 16.1246C11.9406 18.8709 9.67186 21.0798 6.92553 21.0798Z" fill="#595A5A"/>
<path d="M74.8061 16.0649C74.7464 12.3037 71.7016 9.19922 67.8806 9.19922C64.0596 9.19922 60.9551 12.3037 60.9551 16.1246C60.9551 19.9455 64.0596 23.05 67.8806 23.05C69.8508 23.05 71.5822 22.2142 72.836 20.9007V22.2739C72.836 22.8112 73.2539 23.2291 73.7912 23.2291C74.3285 23.2291 74.7464 22.8112 74.7464 22.2739V16.1843C74.8659 16.1246 74.8061 16.1246 74.8061 16.0649ZM67.9403 21.0798C65.194 21.0798 62.985 18.8709 62.985 16.1246C62.985 13.3783 65.194 11.1694 67.9403 11.1694C70.6866 11.1694 72.8957 13.3783 72.8957 16.1246C72.8957 18.8709 70.6866 21.0798 67.9403 21.0798Z" fill="#595A5A"/>
<path d="M59.5804 15.7661C59.5804 15.7064 59.5804 15.6467 59.5804 15.587V4.06462C59.5804 3.52731 59.1625 3.10938 58.6252 3.10938C58.0879 3.10938 57.67 3.52731 57.67 4.06462V11.4079C56.4162 10.0945 54.6251 9.25866 52.7146 9.25866C48.8936 9.25866 45.7891 12.3631 45.7891 16.184C45.7891 20.0049 48.8936 23.1094 52.7146 23.1094C56.5356 23.1094 59.6402 20.0049 59.6402 16.184C59.5805 16.0049 59.5804 15.8855 59.5804 15.7661ZM52.7146 21.0796C49.9683 21.0796 47.7593 18.8706 47.7593 16.1243C47.7593 13.3781 49.9683 11.1691 52.7146 11.1691C55.4609 11.1691 57.67 13.3781 57.67 16.1243C57.67 18.8706 55.4609 21.0796 52.7146 21.0796Z" fill="#595A5A"/>
<path d="M29.0737 16.1246C29.0737 12.3037 25.9692 9.19922 22.1482 9.19922C18.3272 9.19922 15.2227 12.3037 15.2227 16.1246C15.2227 19.9455 18.3272 23.05 22.1482 23.05C24.1184 23.05 25.8498 22.2142 27.1036 20.9604V21.8559C27.1036 24.6619 24.8946 26.6321 21.7303 26.6321C20.3571 26.6321 19.2227 26.3336 18.3272 25.6769C17.9093 25.3784 17.3123 25.438 16.9541 25.856C16.6555 26.2739 16.7152 26.8709 17.1331 27.2291C18.3272 28.1246 19.8794 28.6022 21.6705 28.6022C25.9094 28.6022 29.014 25.7962 29.014 21.9156V16.4828C29.014 16.4828 29.014 16.4828 29.014 16.4231C29.0737 16.244 29.0737 16.1843 29.0737 16.1246ZM22.2079 21.0798C19.4615 21.0798 17.2526 18.8709 17.2526 16.1246C17.2526 13.3783 19.4615 11.1694 22.2079 11.1694C24.9542 11.1694 27.1632 13.3783 27.1632 16.1246C27.1632 18.8709 24.9542 21.0798 22.2079 21.0798Z" fill="#595A5A"/>
<path d="M192.895 20.5256C192.23 20.5256 191.619 20.3777 191.065 20.082C190.519 19.777 190.084 19.3518 189.761 18.8065C189.437 18.2612 189.275 17.6281 189.275 16.9072C189.275 16.1862 189.433 15.5577 189.747 15.0217C190.061 14.4856 190.482 14.0697 191.009 13.7739C191.536 13.4689 192.114 13.3164 192.743 13.3164C193.409 13.3164 193.982 13.4689 194.463 13.7739C194.953 14.0789 195.332 14.4717 195.6 14.9523C195.868 15.4237 196.002 15.9228 196.002 16.4496C196.002 16.7269 195.961 16.9256 195.877 17.0458C195.803 17.1659 195.706 17.2445 195.586 17.2815C195.475 17.3092 195.364 17.3231 195.253 17.3231H190.357C190.45 18.007 190.732 18.5477 191.203 18.9451C191.675 19.3333 192.243 19.5274 192.909 19.5274C193.298 19.5274 193.64 19.4673 193.936 19.3472C194.231 19.2178 194.523 19.0653 194.809 18.8897C194.883 18.8435 194.953 18.8065 195.017 18.7788C195.091 18.7418 195.165 18.7233 195.239 18.7233C195.369 18.7233 195.48 18.7788 195.572 18.8897C195.665 18.9914 195.711 19.1069 195.711 19.2363C195.711 19.4026 195.618 19.5552 195.433 19.6938C195.165 19.8971 194.809 20.0866 194.366 20.2622C193.922 20.4378 193.432 20.5256 192.895 20.5256ZM192.729 14.3146C192.1 14.3146 191.568 14.5041 191.134 14.883C190.709 15.262 190.45 15.7703 190.357 16.4081H194.962C194.934 15.8073 194.717 15.3082 194.31 14.9108C193.903 14.5133 193.376 14.3146 192.729 14.3146Z" fill="#868789"/>
<path d="M185.606 20.5256C184.977 20.5256 184.39 20.3731 183.844 20.0681C183.299 19.7631 182.855 19.338 182.513 18.7926C182.18 18.2473 182.014 17.6235 182.014 16.921C182.014 16.2093 182.18 15.5855 182.513 15.0494C182.846 14.5041 183.28 14.0789 183.817 13.7739C184.362 13.4689 184.949 13.3164 185.578 13.3164C186.151 13.3164 186.665 13.4273 187.118 13.6491C187.571 13.871 187.941 14.1298 188.227 14.4255C188.375 14.5734 188.449 14.7167 188.449 14.8553C188.449 14.9755 188.398 15.091 188.297 15.2019C188.195 15.3036 188.079 15.3544 187.95 15.3544C187.876 15.3544 187.807 15.3359 187.742 15.2989C187.677 15.262 187.594 15.1973 187.492 15.1048C187.261 14.9015 186.984 14.7213 186.66 14.5642C186.346 14.3978 185.98 14.3146 185.564 14.3146C185.12 14.3146 184.709 14.4209 184.33 14.6335C183.951 14.8461 183.646 15.1464 183.414 15.5346C183.183 15.9228 183.068 16.3849 183.068 16.921C183.068 17.4571 183.183 17.9192 183.414 18.3074C183.655 18.6956 183.965 18.996 184.344 19.2086C184.732 19.4211 185.148 19.5274 185.592 19.5274C186.008 19.5274 186.378 19.4442 186.702 19.2779C187.025 19.1115 187.303 18.9267 187.534 18.7233C187.719 18.5662 187.871 18.4876 187.991 18.4876C188.121 18.4876 188.236 18.5385 188.338 18.6401C188.44 18.7418 188.491 18.8573 188.491 18.9867C188.491 19.1254 188.417 19.2686 188.269 19.4165C187.982 19.703 187.608 19.9618 187.145 20.1929C186.692 20.4147 186.179 20.5256 185.606 20.5256Z" fill="#868789"/>
<path d="M174.789 20.4979C174.446 20.4979 174.275 20.3177 174.275 19.9572V13.8848C174.275 13.5244 174.446 13.3441 174.789 13.3441C175.131 13.3441 175.302 13.5244 175.302 13.8848V14.6335H175.357C175.579 14.2545 175.903 13.9403 176.328 13.6907C176.763 13.4412 177.262 13.3164 177.826 13.3164C178.372 13.3164 178.857 13.4412 179.282 13.6907C179.708 13.931 180.04 14.273 180.281 14.7167C180.531 15.1511 180.655 15.664 180.655 16.2555V19.9572C180.655 20.3177 180.484 20.4979 180.142 20.4979C179.8 20.4979 179.629 20.3177 179.629 19.9572V16.3803C179.629 15.7241 179.444 15.2158 179.074 14.8553C178.704 14.4948 178.228 14.3146 177.646 14.3146C177.193 14.3146 176.786 14.4209 176.425 14.6335C176.074 14.8368 175.796 15.1187 175.593 15.4792C175.399 15.8396 175.302 16.2417 175.302 16.6853V19.9572C175.302 20.3177 175.131 20.4979 174.789 20.4979Z" fill="#868789"/>
<path d="M169.841 20.5256C169.175 20.5256 168.565 20.3777 168.01 20.082C167.464 19.777 167.03 19.3518 166.706 18.8065C166.383 18.2612 166.221 17.6281 166.221 16.9072C166.221 16.1862 166.378 15.5577 166.692 15.0217C167.007 14.4856 167.427 14.0697 167.954 13.7739C168.481 13.4689 169.059 13.3164 169.688 13.3164C170.354 13.3164 170.927 13.4689 171.408 13.7739C171.898 14.0789 172.277 14.4717 172.545 14.9523C172.813 15.4237 172.947 15.9228 172.947 16.4496C172.947 16.7269 172.906 16.9256 172.823 17.0458C172.749 17.1659 172.652 17.2445 172.531 17.2815C172.42 17.3092 172.309 17.3231 172.198 17.3231H167.303C167.395 18.007 167.677 18.5477 168.149 18.9451C168.62 19.3333 169.189 19.5274 169.855 19.5274C170.243 19.5274 170.585 19.4673 170.881 19.3472C171.177 19.2178 171.468 19.0653 171.755 18.8897C171.829 18.8435 171.898 18.8065 171.963 18.7788C172.037 18.7418 172.111 18.7233 172.185 18.7233C172.314 18.7233 172.425 18.7788 172.517 18.8897C172.61 18.9914 172.656 19.1069 172.656 19.2363C172.656 19.4026 172.564 19.5552 172.379 19.6938C172.111 19.8971 171.755 20.0866 171.311 20.2622C170.867 20.4378 170.377 20.5256 169.841 20.5256ZM169.674 14.3146C169.045 14.3146 168.514 14.5041 168.079 14.883C167.654 15.262 167.395 15.7703 167.303 16.4081H171.907C171.879 15.8073 171.662 15.3082 171.255 14.9108C170.849 14.5133 170.321 14.3146 169.674 14.3146Z" fill="#868789"/>
<path d="M161.186 23.2984C160.743 23.2984 160.317 23.2383 159.91 23.1182C159.513 23.0073 159.152 22.864 158.829 22.6884C158.708 22.6144 158.62 22.5359 158.565 22.4527C158.519 22.3788 158.496 22.3002 158.496 22.217C158.496 22.0876 158.537 21.9675 158.62 21.8566C158.713 21.7456 158.829 21.6902 158.967 21.6902C159.041 21.6902 159.101 21.6994 159.148 21.7179C159.194 21.7364 159.249 21.7641 159.314 21.8011C159.582 21.949 159.864 22.0691 160.16 22.1616C160.465 22.254 160.793 22.3002 161.145 22.3002C161.672 22.3002 162.134 22.1985 162.532 21.9952C162.939 21.7919 163.258 21.5007 163.489 21.1218C163.72 20.7521 163.835 20.313 163.835 19.8047V19.1115H163.78C163.521 19.4997 163.174 19.8324 162.74 20.1097C162.314 20.387 161.783 20.5256 161.145 20.5256C160.497 20.5256 159.901 20.3685 159.356 20.0543C158.81 19.74 158.375 19.3102 158.052 18.7649C157.728 18.2196 157.566 17.605 157.566 16.921C157.566 16.2278 157.728 15.6132 158.052 15.0771C158.375 14.5318 158.815 14.102 159.369 13.7878C159.924 13.4735 160.544 13.3164 161.228 13.3164C161.663 13.3164 162.092 13.395 162.518 13.5521C162.952 13.7 163.345 13.9264 163.697 14.2314C164.048 14.5272 164.33 14.9015 164.543 15.3544C164.755 15.798 164.862 16.3202 164.862 16.921V19.777C164.862 20.4794 164.7 21.094 164.376 21.6209C164.062 22.1477 163.627 22.559 163.073 22.8548C162.527 23.1505 161.898 23.2984 161.186 23.2984ZM161.228 19.5274C161.727 19.5274 162.171 19.4165 162.559 19.1947C162.957 18.9636 163.267 18.654 163.489 18.2658C163.72 17.8684 163.835 17.4201 163.835 16.921C163.835 16.4219 163.72 15.9783 163.489 15.5901C163.267 15.1927 162.957 14.883 162.559 14.6612C162.171 14.4301 161.727 14.3146 161.228 14.3146C160.729 14.3146 160.28 14.4301 159.883 14.6612C159.494 14.883 159.185 15.1927 158.953 15.5901C158.731 15.9783 158.62 16.4219 158.62 16.921C158.62 17.4201 158.731 17.8684 158.953 18.2658C159.185 18.654 159.494 18.9636 159.883 19.1947C160.28 19.4165 160.729 19.5274 161.228 19.5274Z" fill="#868789"/>
<path d="M155.554 12.1509C155.36 12.1509 155.198 12.0908 155.069 11.9706C154.94 11.8412 154.875 11.6841 154.875 11.4993C154.875 11.3144 154.94 11.1619 155.069 11.0418C155.198 10.9124 155.36 10.8477 155.554 10.8477C155.748 10.8477 155.91 10.9124 156.04 11.0418C156.169 11.1619 156.234 11.3144 156.234 11.4993C156.234 11.6841 156.169 11.8412 156.04 11.9706C155.91 12.0908 155.748 12.1509 155.554 12.1509ZM155.554 20.4969C155.212 20.4969 155.041 20.3167 155.041 19.9562V13.8838C155.041 13.5234 155.212 13.3432 155.554 13.3432C155.896 13.3432 156.067 13.5234 156.067 13.8838V19.9562C156.067 20.3167 155.896 20.4969 155.554 20.4969Z" fill="#868789"/>
<path d="M152.644 20.4969C152.302 20.4969 152.131 20.3167 152.131 19.9562V11.3883C152.131 11.0279 152.302 10.8477 152.644 10.8477C152.986 10.8477 153.157 11.0279 153.157 11.3883V19.9562C153.157 20.3167 152.986 20.4969 152.644 20.4969Z" fill="#868789"/>
<path d="M149.732 20.4969C149.39 20.4969 149.219 20.3167 149.219 19.9562V11.3883C149.219 11.0279 149.39 10.8477 149.732 10.8477C150.074 10.8477 150.245 11.0279 150.245 11.3883V19.9562C150.245 20.3167 150.074 20.4969 149.732 20.4969Z" fill="#868789"/>
<path d="M144.782 20.5256C144.116 20.5256 143.506 20.3777 142.951 20.082C142.406 19.777 141.971 19.3518 141.648 18.8065C141.324 18.2612 141.162 17.6281 141.162 16.9072C141.162 16.1862 141.319 15.5577 141.634 15.0217C141.948 14.4856 142.369 14.0697 142.896 13.7739C143.423 13.4689 144.001 13.3164 144.629 13.3164C145.295 13.3164 145.869 13.4689 146.349 13.7739C146.839 14.0789 147.218 14.4717 147.487 14.9523C147.755 15.4237 147.889 15.9228 147.889 16.4496C147.889 16.7269 147.847 16.9256 147.764 17.0458C147.69 17.1659 147.593 17.2445 147.473 17.2815C147.362 17.3092 147.251 17.3231 147.14 17.3231H142.244C142.336 18.007 142.618 18.5477 143.09 18.9451C143.562 19.3333 144.13 19.5274 144.796 19.5274C145.184 19.5274 145.526 19.4673 145.822 19.3472C146.118 19.2178 146.409 19.0653 146.696 18.8897C146.77 18.8435 146.839 18.8065 146.904 18.7788C146.978 18.7418 147.052 18.7233 147.126 18.7233C147.255 18.7233 147.366 18.7788 147.459 18.8897C147.551 18.9914 147.598 19.1069 147.598 19.2363C147.598 19.4026 147.505 19.5552 147.32 19.6938C147.052 19.8971 146.696 20.0866 146.252 20.2622C145.808 20.4378 145.318 20.5256 144.782 20.5256ZM144.616 14.3146C143.987 14.3146 143.455 14.5041 143.021 14.883C142.595 15.262 142.336 15.7703 142.244 16.4081H146.849C146.821 15.8073 146.604 15.3082 146.197 14.9108C145.79 14.5133 145.263 14.3146 144.616 14.3146Z" fill="#868789"/>
<path d="M138.852 20.5249C138.232 20.5249 137.71 20.3308 137.284 19.9427C136.859 19.5545 136.646 18.9907 136.646 18.2513V14.3971H135.828C135.467 14.3971 135.287 14.24 135.287 13.9257C135.287 13.6115 135.467 13.4544 135.828 13.4544H136.646V11.7907C136.646 11.4302 136.817 11.25 137.159 11.25C137.502 11.25 137.673 11.4302 137.673 11.7907V13.4544H140.003C140.363 13.4544 140.544 13.6115 140.544 13.9257C140.544 14.24 140.363 14.3971 140.003 14.3971H137.673V18.0988C137.673 18.6071 137.797 18.9722 138.047 19.194C138.297 19.4158 138.579 19.5267 138.893 19.5267C139.05 19.5267 139.203 19.5036 139.351 19.4574C139.499 19.4112 139.642 19.3557 139.781 19.2911C139.855 19.2541 139.92 19.2264 139.975 19.2079C140.03 19.1894 140.091 19.1801 140.155 19.1801C140.285 19.1801 140.391 19.2402 140.474 19.3604C140.558 19.4713 140.599 19.5776 140.599 19.6792C140.599 19.8548 140.497 20.0027 140.294 20.1229C139.85 20.3909 139.369 20.5249 138.852 20.5249Z" fill="#868789"/>
<path d="M128.535 20.4979C128.193 20.4979 128.021 20.3177 128.021 19.9572V13.8848C128.021 13.5244 128.193 13.3441 128.535 13.3441C128.877 13.3441 129.048 13.5244 129.048 13.8848V14.6335H129.103C129.325 14.2545 129.649 13.9403 130.074 13.6907C130.509 13.4412 131.008 13.3164 131.572 13.3164C132.118 13.3164 132.603 13.4412 133.028 13.6907C133.454 13.931 133.787 14.273 134.027 14.7167C134.277 15.1511 134.401 15.664 134.401 16.2555V19.9572C134.401 20.3177 134.23 20.4979 133.888 20.4979C133.546 20.4979 133.375 20.3177 133.375 19.9572V16.3803C133.375 15.7241 133.19 15.2158 132.82 14.8553C132.45 14.4948 131.974 14.3146 131.392 14.3146C130.939 14.3146 130.532 14.4209 130.171 14.6335C129.82 14.8368 129.543 15.1187 129.339 15.4792C129.145 15.8396 129.048 16.2417 129.048 16.6853V19.9572C129.048 20.3177 128.877 20.4979 128.535 20.4979Z" fill="#868789"/>
<path d="M125.424 20.4969C125.063 20.4969 124.883 20.3167 124.883 19.9562V11.3883C124.883 11.0279 125.063 10.8477 125.424 10.8477C125.784 10.8477 125.964 11.0279 125.964 11.3883V19.9562C125.964 20.3167 125.784 20.4969 125.424 20.4969Z" fill="#868789"/>
<path d="M99.6312 32C90.831 32 83.6309 24.8 83.6309 16C83.6309 7.2 90.831 0 99.6312 0C108.431 0 115.632 7.2 115.632 16C115.632 24.8 108.431 32 99.6312 32Z" fill="#03A6F7"/>
<path d="M109.56 14.0235C109.607 14.0235 109.607 14.0235 109.654 14.0235C110.36 14.0235 110.925 13.4588 110.925 12.7529C110.925 12.3294 110.737 12 110.407 11.7647C110.454 11.2 110.36 10.6824 110.125 10.2588C109.419 8.98824 107.678 8.47059 105.136 8.8C104.666 8.84706 104.195 8.94118 103.725 9.0353C102.83 5.97647 101.325 4 99.5834 4C98.7363 4 97.9363 4.47059 97.2304 5.36471C97.0892 5.31765 96.9951 5.31765 96.8539 5.31765C96.148 5.31765 95.5833 5.88235 95.5833 6.58824C95.5833 6.96471 95.7244 7.29412 96.0068 7.52941C95.8186 8 95.6303 8.51765 95.4891 9.08235C95.0185 8.98824 94.5009 8.89412 94.0773 8.84706C91.5361 8.51765 89.7478 9.08235 89.089 10.3059C88.4301 11.5294 88.9478 13.3176 90.5478 15.2941C90.7831 15.5294 91.0184 15.8118 91.2537 16.0471C91.0184 16.2824 90.7831 16.5647 90.5478 16.8C88.9007 18.7765 88.3831 20.5176 89.089 21.7882C89.5596 22.6824 90.5949 23.2 92.1008 23.3412C92.2891 23.8588 92.7597 24.1882 93.3244 24.1882C93.9362 24.1882 94.4538 23.7647 94.595 23.2C94.9244 23.1529 95.2538 23.1059 95.5833 23.0118C96.4774 26.0706 97.9833 28.0471 99.7245 28.0471C101.466 28.0471 102.972 26.0706 103.866 23.0118C104.336 23.1059 104.854 23.2 105.278 23.2471C105.748 23.2941 106.219 23.3412 106.642 23.3412C108.478 23.3412 109.748 22.8235 110.313 21.7882C111.019 20.5176 110.454 18.7765 108.854 16.8C108.619 16.5647 108.384 16.2824 108.148 16.0471C108.384 15.8118 108.619 15.5294 108.854 15.2941C109.042 14.8235 109.325 14.4 109.56 14.0235ZM105.278 9.64706C105.701 9.6 106.125 9.55294 106.501 9.55294C107.96 9.55294 108.948 9.92941 109.372 10.6353C109.513 10.8706 109.56 11.1529 109.56 11.4353C108.901 11.4824 108.384 12.0471 108.384 12.7059C108.384 13.0353 108.525 13.3647 108.76 13.6C108.572 13.9294 108.337 14.2588 108.007 14.5882C107.819 14.8235 107.584 15.0588 107.348 15.2941C106.501 14.4941 105.56 13.7412 104.478 13.0353C104.383 11.9059 104.195 10.8235 103.96 9.83529C104.431 9.78824 104.854 9.69412 105.278 9.64706ZM101.607 19.6706C100.948 20.0471 100.289 20.3765 99.6304 20.6588C98.9716 20.3765 98.3127 20.0471 97.6539 19.6706C96.948 19.2941 96.2421 18.8706 95.5833 18.4C95.5362 17.6471 95.4891 16.8471 95.4891 16C95.4891 15.1529 95.5362 14.3529 95.5833 13.6C96.2421 13.1765 96.948 12.7529 97.6539 12.3294C98.3127 11.9529 98.9716 11.6235 99.6304 11.3412C100.289 11.6235 100.948 11.9529 101.607 12.3294C102.313 12.7059 103.019 13.1294 103.678 13.6C103.725 14.3529 103.772 15.1529 103.772 16C103.772 16.8471 103.725 17.6471 103.678 18.4C103.019 18.8235 102.313 19.2471 101.607 19.6706ZM103.536 19.5765C103.442 20.4235 103.301 21.1765 103.113 21.9294C102.36 21.7412 101.56 21.4588 100.713 21.1294C101.136 20.9412 101.56 20.7059 102.03 20.4706C102.548 20.1412 103.066 19.8588 103.536 19.5765ZM98.501 21.1294C97.701 21.4588 96.9009 21.6941 96.1009 21.9294C95.9127 21.2235 95.7715 20.4235 95.6774 19.5765C96.148 19.9059 96.6656 20.1882 97.1833 20.4706C97.6068 20.6588 98.0304 20.8941 98.501 21.1294ZM94.595 17.7412C93.842 17.1765 93.0891 16.6118 92.4773 16C93.0891 15.3882 93.842 14.8235 94.595 14.2588C94.5479 14.8235 94.5479 15.3882 94.5479 16C94.5479 16.6118 94.5479 17.1765 94.595 17.7412ZM95.6774 12.4235C95.7715 11.5765 95.9127 10.8235 96.1009 10.0706C96.8539 10.2588 97.6539 10.5412 98.501 10.8706C98.0774 11.0588 97.6539 11.2941 97.1833 11.5294C96.6656 11.8588 96.148 12.1412 95.6774 12.4235ZM100.713 10.8706C101.513 10.5412 102.313 10.3059 103.113 10.0706C103.301 10.7765 103.442 11.5765 103.536 12.4235C103.066 12.0941 102.548 11.8118 102.03 11.5294C101.607 11.3412 101.183 11.1059 100.713 10.8706ZM104.619 14.2588C105.372 14.8235 106.125 15.3882 106.736 16C106.125 16.6118 105.372 17.1765 104.619 17.7412C104.666 17.1765 104.666 16.6118 104.666 16C104.666 15.3882 104.666 14.8235 104.619 14.2588ZM96.8539 7.81177C97.6068 7.81177 98.1716 7.24706 98.1716 6.54118C98.1716 6.30588 98.0774 6.07059 97.9833 5.88235C98.501 5.22353 99.0657 4.89412 99.6304 4.89412C100.854 4.89412 102.078 6.54118 102.925 9.27059C101.889 9.55294 100.76 9.92941 99.6304 10.4C98.501 9.92941 97.4186 9.55294 96.3362 9.27059C96.4774 8.70588 96.6656 8.23529 96.8539 7.81177ZM89.8419 10.6824C90.2184 9.97647 91.2537 9.6 92.7126 9.6C93.0891 9.6 93.5126 9.64706 93.9362 9.69412C94.3597 9.74118 94.7832 9.83529 95.2538 9.92941C95.0185 10.9176 94.8303 12 94.7362 13.1294C93.7009 13.8353 92.7126 14.6353 91.8655 15.3882C91.6302 15.1529 91.442 14.9176 91.2067 14.6824C89.8419 13.0353 89.3713 11.5765 89.8419 10.6824ZM94.3597 22.2588C94.1244 21.8353 93.7009 21.5529 93.2303 21.5529C92.7126 21.5529 92.242 21.8824 92.0538 22.3529C90.9243 22.2588 90.1714 21.8824 89.8419 21.3176C89.3713 20.4235 89.8419 18.9647 91.2067 17.3176C91.3949 17.0824 91.6302 16.8471 91.8655 16.6118C92.7126 17.4118 93.6538 18.1647 94.7362 18.8706C94.8303 20 95.0185 21.0824 95.2538 22.0706C94.9244 22.1647 94.6421 22.2118 94.3597 22.2588ZM99.6304 27.1529C98.4069 27.1529 97.1833 25.5059 96.3362 22.7765C97.3715 22.4941 98.501 22.1176 99.6304 21.6471C100.76 22.1176 101.842 22.4941 102.925 22.7765C102.078 25.5059 100.807 27.1529 99.6304 27.1529ZM109.372 21.3176C108.901 22.2118 107.395 22.5882 105.278 22.3059C104.854 22.2588 104.431 22.1647 103.96 22.0706C104.195 21.0824 104.383 20 104.478 18.8706C105.513 18.1647 106.501 17.3647 107.348 16.6118C107.584 16.8471 107.772 17.0824 108.007 17.3176C109.372 18.9647 109.889 20.4235 109.372 21.3176Z" fill="white"/>
<path d="M99.6308 17.9764C100.722 17.9764 101.607 17.0915 101.607 15.9999C101.607 14.9083 100.722 14.0234 99.6308 14.0234C98.5392 14.0234 97.6543 14.9083 97.6543 15.9999C97.6543 17.0915 98.5392 17.9764 99.6308 17.9764Z" fill="white"/>
</svg>
