<svg width="191" height="32" viewBox="0 0 191 32" fill="none" xmlns="http://www.w3.org/2000/svg">
<path d="M39.7503 11.1635C42.6665 11.1635 45.0122 13.3725 45.0122 16.1188C45.0122 18.865 42.6665 21.074 39.7503 21.074C36.8341 21.074 34.4886 18.865 34.4886 16.1188C34.4886 13.3725 36.8341 11.1635 39.7503 11.1635ZM39.7503 9.19336C35.693 9.19336 32.3965 12.2979 32.3965 16.1188C32.3965 19.9397 35.693 23.0441 39.7503 23.0441C43.8076 23.0441 47.1042 19.9397 47.1042 16.1188C47.1042 12.2979 43.8076 9.19336 39.7503 9.19336Z" fill="#595A5A"/>
<path d="M14.7077 16.1188C14.7077 12.2979 11.4111 9.19336 7.35384 9.19336C3.29654 9.19336 0 12.2979 0 16.1188C0 19.9397 3.29654 23.0441 7.35384 23.0441C9.44588 23.0441 11.2844 22.2083 12.6157 20.8949V22.268C12.6157 22.8053 13.0594 23.2232 13.63 23.2232C14.2005 23.2232 14.6443 22.8053 14.6443 22.268V16.4173V16.3575C14.7077 16.2381 14.7077 16.1785 14.7077 16.1188ZM7.35384 21.074C4.43765 21.074 2.092 18.865 2.092 16.1188C2.092 13.3725 4.43765 11.1635 7.35384 11.1635C10.27 11.1635 12.6157 13.3725 12.6157 16.1188C12.6791 18.865 10.27 21.074 7.35384 21.074Z" fill="#595A5A"/>
<path d="M79.4342 16.059C79.3708 12.2978 76.1377 9.19336 72.0804 9.19336C68.0231 9.19336 64.7266 12.2979 64.7266 16.1188C64.7266 19.9397 68.0231 23.0441 72.0804 23.0441C74.1724 23.0441 76.0109 22.2083 77.3422 20.8949V22.268C77.3422 22.8053 77.786 23.2232 78.3565 23.2232C78.9271 23.2232 79.3709 22.8053 79.3709 22.268V16.1784C79.4976 16.1187 79.4342 16.1187 79.4342 16.059ZM72.1438 21.074C69.2276 21.074 66.882 18.865 66.882 16.1188C66.882 13.3725 69.2276 11.1635 72.1438 11.1635C75.06 11.1635 77.4056 13.3725 77.4056 16.1188C77.4056 18.865 75.06 21.074 72.1438 21.074Z" fill="#595A5A"/>
<path d="M63.2673 15.7583C63.2673 15.6986 63.2673 15.6389 63.2673 15.5792V4.05681C63.2673 3.5195 62.8236 3.10156 62.253 3.10156C61.6825 3.10156 61.2387 3.5195 61.2387 4.05681V11.4001C59.9074 10.0867 58.0055 9.25085 55.9769 9.25085C51.9196 9.25085 48.623 12.3553 48.623 16.1762C48.623 19.9971 51.9196 23.1016 55.9769 23.1016C60.0342 23.1016 63.3308 19.9971 63.3308 16.1762C63.2674 15.9971 63.2673 15.8777 63.2673 15.7583ZM55.9769 21.0718C53.0607 21.0718 50.7151 18.8628 50.7151 16.1165C50.7151 13.3703 53.0607 11.1613 55.9769 11.1613C58.8931 11.1613 61.2387 13.3703 61.2387 16.1165C61.2387 18.8628 58.8931 21.0718 55.9769 21.0718Z" fill="#595A5A"/>
<path d="M30.8717 16.1188C30.8717 12.2979 27.5752 9.19336 23.5179 9.19336C19.4606 9.19336 16.1641 12.2979 16.1641 16.1188C16.1641 19.9397 19.4606 23.0441 23.5179 23.0441C25.6099 23.0441 27.4484 22.2083 28.7797 20.9546V21.8501C28.7797 24.6561 26.4341 26.6262 23.0742 26.6262C21.6161 26.6262 20.4115 26.3277 19.4606 25.671C19.0168 25.3725 18.3829 25.4322 18.0025 25.8501C17.6856 26.268 17.7489 26.865 18.1927 27.2232C19.4606 28.1188 21.1088 28.5964 23.0107 28.5964C27.5118 28.5964 30.8084 25.7904 30.8084 21.9098V16.477C30.8084 16.477 30.8084 16.477 30.8084 16.4173C30.8718 16.2382 30.8717 16.1785 30.8717 16.1188ZM23.5813 21.074C20.6651 21.074 18.3195 18.865 18.3195 16.1188C18.3195 13.3725 20.6651 11.1635 23.5813 11.1635C26.4975 11.1635 28.8431 13.3725 28.8431 16.1188C28.8431 18.865 26.4975 21.074 23.5813 21.074Z" fill="#595A5A"/>
<path d="M179.662 26.2577C179.299 26.2577 179.117 26.0774 179.117 25.717V19.6169C179.117 19.4597 179.161 19.335 179.25 19.2425C179.338 19.1501 179.476 19.1039 179.662 19.1039C179.849 19.1039 179.986 19.1501 180.074 19.2425C180.163 19.335 180.207 19.4597 180.207 19.6169V20.2546H180.266C180.511 19.9126 180.84 19.6307 181.253 19.4089C181.675 19.1871 182.136 19.0762 182.637 19.0762C183.157 19.0762 183.624 19.2009 184.036 19.4505C184.458 19.7 184.782 20.042 185.008 20.4764H185.067C185.342 20.0513 185.71 19.7139 186.172 19.4644C186.633 19.2056 187.134 19.0762 187.674 19.0762C188.184 19.0762 188.641 19.1871 189.043 19.4089C189.456 19.6307 189.785 19.945 190.03 20.3517C190.276 20.7583 190.398 21.2343 190.398 21.7796V25.717C190.398 26.0774 190.217 26.2577 189.853 26.2577C189.49 26.2577 189.308 26.0774 189.308 25.717V21.9044C189.308 21.3499 189.137 20.9062 188.793 20.5735C188.459 20.2407 188.017 20.0744 187.468 20.0744C187.065 20.0744 186.697 20.1668 186.363 20.3517C186.039 20.5365 185.779 20.7907 185.582 21.1142C185.396 21.4377 185.303 21.8027 185.303 22.2094V25.717C185.303 26.0774 185.121 26.2577 184.758 26.2577C184.394 26.2577 184.213 26.0774 184.213 25.717V21.9044C184.213 21.3499 184.041 20.9062 183.697 20.5735C183.364 20.2407 182.922 20.0744 182.372 20.0744C181.96 20.0744 181.591 20.1668 181.267 20.3517C180.943 20.5365 180.683 20.7907 180.487 21.1142C180.3 21.4377 180.207 21.8027 180.207 22.2094V25.717C180.207 26.0774 180.025 26.2577 179.662 26.2577Z" fill="#868789"/>
<path d="M173.516 26.2854C172.829 26.2854 172.196 26.1283 171.617 25.814C171.037 25.4998 170.576 25.07 170.232 24.5247C169.889 23.9794 169.717 23.3647 169.717 22.6808C169.717 21.9876 169.889 21.373 170.232 20.8369C170.576 20.2916 171.042 19.8618 171.631 19.5475C172.22 19.2333 172.878 19.0762 173.605 19.0762C174.066 19.0762 174.523 19.1547 174.974 19.3119C175.436 19.4597 175.853 19.6862 176.226 19.9912C176.599 20.287 176.899 20.6613 177.125 21.1142C177.35 21.5578 177.463 22.08 177.463 22.6808V25.717C177.463 26.0774 177.282 26.2577 176.918 26.2577C176.555 26.2577 176.374 26.0774 176.374 25.717V24.8713H176.315C176.04 25.2595 175.672 25.5922 175.21 25.8695C174.758 26.1468 174.194 26.2854 173.516 26.2854ZM173.605 25.2872C174.135 25.2872 174.606 25.1763 175.019 24.9545C175.441 24.7234 175.77 24.4138 176.005 24.0256C176.251 23.6281 176.374 23.1799 176.374 22.6808C176.374 22.1817 176.251 21.738 176.005 21.3499C175.77 20.9524 175.441 20.6428 175.019 20.421C174.606 20.1899 174.135 20.0744 173.605 20.0744C173.075 20.0744 172.598 20.1899 172.176 20.421C171.764 20.6428 171.435 20.9524 171.19 21.3499C170.954 21.738 170.836 22.1817 170.836 22.6808C170.836 23.1799 170.954 23.6281 171.19 24.0256C171.435 24.4138 171.764 24.7234 172.176 24.9545C172.598 25.1763 173.075 25.2872 173.605 25.2872Z" fill="#868789"/>
<path d="M165.297 26.2577C164.934 26.2577 164.752 26.0774 164.752 25.717V19.6446C164.752 19.2841 164.934 19.1039 165.297 19.1039C165.66 19.1039 165.842 19.2841 165.842 19.6446V20.3655H165.901C166.097 20.0143 166.382 19.7139 166.755 19.4644C167.128 19.2056 167.555 19.0762 168.036 19.0762C168.223 19.0762 168.395 19.0947 168.552 19.1316C168.719 19.1686 168.866 19.2194 168.993 19.2841C169.239 19.395 169.362 19.5522 169.362 19.7555C169.362 19.8757 169.317 20.0004 169.229 20.1298C169.151 20.2592 169.028 20.3239 168.861 20.3239C168.812 20.3239 168.748 20.3147 168.669 20.2962C168.591 20.2685 168.517 20.2454 168.449 20.2269C168.36 20.1991 168.262 20.176 168.154 20.1576C168.056 20.1391 167.948 20.1298 167.83 20.1298C167.447 20.1298 167.103 20.2361 166.799 20.4487C166.505 20.652 166.269 20.9339 166.092 21.2944C165.925 21.6549 165.842 22.0661 165.842 22.5283V25.717C165.842 26.0774 165.66 26.2577 165.297 26.2577Z" fill="#868789"/>
<path d="M158.992 29.0582C158.521 29.0582 158.069 28.9981 157.637 28.8779C157.215 28.767 156.832 28.6238 156.489 28.4482C156.361 28.3742 156.268 28.2957 156.209 28.2125C156.16 28.1385 156.135 28.06 156.135 27.9768C156.135 27.8474 156.179 27.7272 156.268 27.6163C156.366 27.5054 156.489 27.45 156.636 27.45C156.714 27.45 156.778 27.4592 156.827 27.4777C156.876 27.4962 156.935 27.5239 157.004 27.5609C157.289 27.7088 157.588 27.8289 157.902 27.9213C158.226 28.0138 158.575 28.06 158.948 28.06C159.508 28.06 159.999 27.9583 160.421 27.755C160.853 27.5516 161.192 27.2605 161.437 26.8815C161.682 26.5118 161.805 26.0728 161.805 25.5645V24.8713H161.746C161.471 25.2595 161.103 25.5922 160.642 25.8695C160.19 26.1468 159.626 26.2854 158.948 26.2854C158.261 26.2854 157.628 26.1283 157.048 25.814C156.469 25.4998 156.008 25.07 155.664 24.5247C155.32 23.9794 155.148 23.3647 155.148 22.6808C155.148 21.9876 155.32 21.373 155.664 20.8369C156.008 20.2916 156.474 19.8618 157.063 19.5475C157.652 19.2333 158.31 19.0762 159.036 19.0762C159.498 19.0762 159.954 19.1547 160.406 19.3119C160.868 19.4597 161.285 19.6862 161.658 19.9912C162.031 20.287 162.33 20.6613 162.556 21.1142C162.782 21.5578 162.895 22.08 162.895 22.6808V25.5367C162.895 26.2392 162.723 26.8538 162.38 27.3806C162.046 27.9075 161.584 28.3188 160.995 28.6145C160.416 28.9103 159.748 29.0582 158.992 29.0582ZM159.036 25.2872C159.567 25.2872 160.038 25.1763 160.45 24.9545C160.872 24.7234 161.201 24.4138 161.437 24.0256C161.682 23.6281 161.805 23.1799 161.805 22.6808C161.805 22.1817 161.682 21.738 161.437 21.3499C161.201 20.9524 160.872 20.6428 160.45 20.421C160.038 20.1899 159.567 20.0744 159.036 20.0744C158.506 20.0744 158.03 20.1899 157.608 20.421C157.196 20.6428 156.867 20.9524 156.621 21.3499C156.386 21.738 156.268 22.1817 156.268 22.6808C156.268 23.1799 156.386 23.6281 156.621 24.0256C156.867 24.4138 157.196 24.7234 157.608 24.9545C158.03 25.1763 158.506 25.2872 159.036 25.2872Z" fill="#868789"/>
<path d="M150.077 26.2854C149.351 26.2854 148.693 26.1283 148.104 25.814C147.515 25.4998 147.049 25.07 146.705 24.5247C146.361 23.9794 146.189 23.3647 146.189 22.6808C146.189 21.9968 146.361 21.3822 146.705 20.8369C147.049 20.2916 147.515 19.8618 148.104 19.5475C148.693 19.2333 149.351 19.0762 150.077 19.0762C150.804 19.0762 151.462 19.2333 152.051 19.5475C152.64 19.8618 153.106 20.2916 153.45 20.8369C153.794 21.3822 153.965 21.9968 153.965 22.6808C153.965 23.3647 153.794 23.9794 153.45 24.5247C153.106 25.07 152.64 25.4998 152.051 25.814C151.462 26.1283 150.804 26.2854 150.077 26.2854ZM150.077 25.2872C150.608 25.2872 151.079 25.1763 151.491 24.9545C151.913 24.7234 152.242 24.4091 152.478 24.0117C152.723 23.6143 152.846 23.1706 152.846 22.6808C152.846 22.1817 152.723 21.738 152.478 21.3499C152.242 20.9524 151.913 20.6428 151.491 20.421C151.079 20.1899 150.608 20.0744 150.077 20.0744C149.547 20.0744 149.071 20.1899 148.649 20.421C148.237 20.6428 147.908 20.9524 147.662 21.3499C147.427 21.738 147.309 22.1817 147.309 22.6808C147.309 23.1706 147.427 23.6143 147.662 24.0117C147.908 24.4091 148.237 24.7234 148.649 24.9545C149.071 25.1763 149.547 25.2872 150.077 25.2872Z" fill="#868789"/>
<path d="M141.766 26.2577C141.402 26.2577 141.221 26.0774 141.221 25.717V19.6446C141.221 19.2841 141.402 19.1039 141.766 19.1039C142.129 19.1039 142.311 19.2841 142.311 19.6446V20.3655H142.369C142.566 20.0143 142.851 19.7139 143.224 19.4644C143.597 19.2056 144.024 19.0762 144.505 19.0762C144.691 19.0762 144.863 19.0947 145.02 19.1316C145.187 19.1686 145.335 19.2194 145.462 19.2841C145.708 19.395 145.83 19.5522 145.83 19.7555C145.83 19.8757 145.786 20.0004 145.698 20.1298C145.619 20.2592 145.497 20.3239 145.33 20.3239C145.281 20.3239 145.217 20.3147 145.138 20.2962C145.06 20.2685 144.986 20.2454 144.917 20.2269C144.829 20.1991 144.731 20.176 144.623 20.1576C144.525 20.1391 144.417 20.1298 144.299 20.1298C143.916 20.1298 143.572 20.2361 143.268 20.4487C142.973 20.652 142.738 20.9339 142.561 21.2944C142.394 21.6549 142.311 22.0661 142.311 22.5283V25.717C142.311 26.0774 142.129 26.2577 141.766 26.2577Z" fill="#868789"/>
<path d="M133.227 26.2571C132.844 26.2571 132.652 26.0769 132.652 25.7164V17.2733C132.652 16.9036 132.849 16.7188 133.241 16.7188H136.216C136.815 16.7188 137.365 16.8389 137.866 17.0792C138.367 17.3103 138.769 17.6569 139.073 18.119C139.388 18.5719 139.545 19.1357 139.545 19.8104C139.545 20.4851 139.388 21.0535 139.073 21.5157C138.769 21.9685 138.367 22.3151 137.866 22.5554C137.365 22.7865 136.815 22.902 136.216 22.902H133.801V25.7164C133.801 26.0769 133.61 26.2571 133.227 26.2571ZM136.113 17.7169H133.801V21.9038H136.113C136.516 21.9038 136.884 21.8299 137.218 21.682C137.561 21.5249 137.836 21.2892 138.043 20.975C138.259 20.6607 138.367 20.2725 138.367 19.8104C138.367 19.339 138.259 18.9508 138.043 18.6458C137.836 18.3316 137.561 18.1005 137.218 17.9526C136.884 17.7955 136.516 17.7169 136.113 17.7169Z" fill="#868789"/>
<path d="M174.918 12.3915C174.555 12.3915 174.373 12.2112 174.373 11.8508V3.28288C174.373 2.92242 174.555 2.74219 174.918 2.74219C175.281 2.74219 175.463 2.92242 175.463 3.28288V6.52703H175.522C175.757 6.14808 176.101 5.83383 176.553 5.58429C177.014 5.33473 177.544 5.20996 178.143 5.20996C178.723 5.20996 179.238 5.33473 179.69 5.58429C180.141 5.82459 180.495 6.16657 180.75 6.61021C181.015 7.04461 181.148 7.55758 181.148 8.1491V11.8508C181.148 12.2112 180.966 12.3915 180.603 12.3915C180.239 12.3915 180.058 12.2112 180.058 11.8508V8.27388C180.058 7.61766 179.861 7.10931 179.469 6.74885C179.076 6.38839 178.57 6.20816 177.952 6.20816C177.471 6.20816 177.039 6.31445 176.656 6.52703C176.283 6.73037 175.988 7.01227 175.772 7.37273C175.566 7.73319 175.463 8.13524 175.463 8.57889V11.8508C175.463 12.2112 175.281 12.3915 174.918 12.3915Z" fill="#868789"/>
<path d="M171.361 12.4195C170.703 12.4195 170.149 12.2254 169.697 11.8372C169.245 11.449 169.019 10.8852 169.019 10.1458V6.29163H168.151C167.768 6.29163 167.576 6.13451 167.576 5.82026C167.576 5.50601 167.768 5.34889 168.151 5.34889H169.019V3.68522C169.019 3.32476 169.201 3.14453 169.564 3.14453C169.928 3.14453 170.109 3.32476 170.109 3.68522V5.34889H172.583C172.966 5.34889 173.158 5.50601 173.158 5.82026C173.158 6.13451 172.966 6.29163 172.583 6.29163H170.109V9.99329C170.109 10.5016 170.242 10.8667 170.507 11.0885C170.772 11.3104 171.071 11.4213 171.405 11.4213C171.572 11.4213 171.734 11.3982 171.891 11.352C172.048 11.3057 172.201 11.2503 172.348 11.1856C172.426 11.1486 172.495 11.1209 172.554 11.1024C172.613 11.0839 172.677 11.0747 172.745 11.0747C172.883 11.0747 172.996 11.1348 173.084 11.2549C173.173 11.3658 173.217 11.4721 173.217 11.5738C173.217 11.7494 173.109 11.8973 172.893 12.0174C172.421 12.2855 171.911 12.4195 171.361 12.4195Z" fill="#868789"/>
<path d="M159.307 12.392C158.885 12.392 158.595 12.1656 158.438 11.7127L156.376 5.93148C156.347 5.84829 156.332 5.77435 156.332 5.70965C156.332 5.55253 156.401 5.437 156.538 5.36306C156.676 5.27987 156.808 5.23828 156.936 5.23828C157.171 5.23828 157.333 5.3723 157.422 5.64033L159.322 11.2413L161.074 6.36126C161.133 6.20413 161.221 6.07936 161.339 5.98693C161.457 5.89451 161.619 5.84829 161.825 5.84829C162.031 5.84829 162.193 5.89451 162.311 5.98693C162.429 6.07936 162.517 6.20413 162.576 6.36126L164.373 11.2552L166.229 5.6542C166.317 5.37692 166.484 5.23828 166.73 5.23828C166.867 5.23828 167 5.27525 167.127 5.34919C167.255 5.42313 167.319 5.53867 167.319 5.69579C167.319 5.75124 167.299 5.83443 167.26 5.94534L165.213 11.7127C165.144 11.9253 165.041 12.0917 164.903 12.2118C164.766 12.332 164.584 12.392 164.358 12.392C164.142 12.392 163.961 12.332 163.813 12.2118C163.676 12.0824 163.568 11.9161 163.489 11.7127L161.811 7.16536L160.146 11.7127C160.078 11.9161 159.975 12.0824 159.837 12.2118C159.709 12.332 159.533 12.392 159.307 12.392Z" fill="#868789"/>
<path d="M151.673 12.4202C150.947 12.4202 150.289 12.263 149.7 11.9488C149.111 11.6345 148.644 11.2048 148.301 10.6594C147.957 10.1141 147.785 9.4995 147.785 8.81555C147.785 8.1316 147.957 7.51696 148.301 6.97165C148.644 6.42634 149.111 5.99656 149.7 5.68231C150.289 5.36806 150.947 5.21094 151.673 5.21094C152.4 5.21094 153.058 5.36806 153.647 5.68231C154.236 5.99656 154.702 6.42634 155.046 6.97165C155.389 7.51696 155.561 8.1316 155.561 8.81555C155.561 9.4995 155.389 10.1141 155.046 10.6594C154.702 11.2048 154.236 11.6345 153.647 11.9488C153.058 12.263 152.4 12.4202 151.673 12.4202ZM151.673 11.422C152.203 11.422 152.675 11.311 153.087 11.0892C153.509 10.8582 153.838 10.5439 154.074 10.1465C154.319 9.74905 154.442 9.30541 154.442 8.81555C154.442 8.31645 154.319 7.8728 154.074 7.48462C153.838 7.08718 153.509 6.77756 153.087 6.55574C152.675 6.32467 152.203 6.20914 151.673 6.20914C151.143 6.20914 150.667 6.32467 150.245 6.55574C149.832 6.77756 149.503 7.08718 149.258 7.48462C149.022 7.8728 148.904 8.31645 148.904 8.81555C148.904 9.30541 149.022 9.74905 149.258 10.1465C149.503 10.5439 149.832 10.8582 150.245 11.0892C150.667 11.311 151.143 11.422 151.673 11.422Z" fill="#868789"/>
<path d="M143.363 12.3924C143 12.3924 142.818 12.2122 142.818 11.8517V5.77936C142.818 5.4189 143 5.23867 143.363 5.23867C143.727 5.23867 143.908 5.4189 143.908 5.77936V6.50028H143.967C144.163 6.14906 144.448 5.84868 144.821 5.59913C145.194 5.34033 145.621 5.21094 146.103 5.21094C146.289 5.21094 146.461 5.22942 146.618 5.26639C146.785 5.30336 146.932 5.3542 147.06 5.4189C147.305 5.52981 147.428 5.68693 147.428 5.89027C147.428 6.01042 147.384 6.1352 147.295 6.26459C147.217 6.39399 147.094 6.45869 146.927 6.45869C146.878 6.45869 146.814 6.44945 146.736 6.43096C146.657 6.40323 146.584 6.38013 146.515 6.36164C146.427 6.33391 146.328 6.31081 146.22 6.29232C146.122 6.27384 146.014 6.26459 145.896 6.26459C145.513 6.26459 145.17 6.37088 144.865 6.58346C144.571 6.7868 144.335 7.0687 144.159 7.42916C143.992 7.78962 143.908 8.20092 143.908 8.66305V11.8517C143.908 12.2122 143.727 12.3924 143.363 12.3924Z" fill="#868789"/>
<path d="M136.925 12.4196C135.992 12.4196 135.153 12.2162 134.406 11.8096C133.66 11.4029 133.071 10.8345 132.639 10.1043C132.217 9.36489 132.006 8.50995 132.006 7.53948C132.006 6.55052 132.222 5.69558 132.654 4.97466C133.096 4.25374 133.685 3.69918 134.421 3.31099C135.158 2.91356 135.977 2.71484 136.881 2.71484C138.412 2.71484 139.664 3.2694 140.636 4.37851C140.793 4.55412 140.872 4.71124 140.872 4.84988C140.872 4.97928 140.808 5.09943 140.68 5.21034C140.562 5.31201 140.435 5.36285 140.297 5.36285C140.199 5.36285 140.116 5.33974 140.047 5.29353C139.978 5.23807 139.895 5.16413 139.797 5.07171C139.433 4.702 139.026 4.38775 138.574 4.12896C138.132 3.87017 137.563 3.74077 136.866 3.74077C136.169 3.74077 135.54 3.8979 134.981 4.21214C134.421 4.51715 133.979 4.95155 133.655 5.51535C133.341 6.07915 133.184 6.75386 133.184 7.53948C133.184 8.33434 133.351 9.02291 133.685 9.6052C134.028 10.1782 134.485 10.6219 135.054 10.9361C135.624 11.2411 136.262 11.3936 136.969 11.3936C137.548 11.3936 138.078 11.292 138.56 11.0886C139.041 10.8761 139.428 10.5757 139.723 10.1875C140.018 9.79005 140.165 9.3233 140.165 8.78723V8.30199H137.249C136.866 8.30199 136.674 8.13563 136.674 7.80289C136.674 7.47016 136.866 7.30379 137.249 7.30379H140.695C141.088 7.30379 141.284 7.48864 141.284 7.85835V8.7595C141.284 9.388 141.161 9.93331 140.916 10.3954C140.67 10.8483 140.337 11.2273 139.914 11.5323C139.502 11.828 139.036 12.0499 138.515 12.1977C137.995 12.3456 137.465 12.4196 136.925 12.4196Z" fill="#868789"/>
<path d="M122.781 16C122.781 24.855 115.194 32 105.791 32C96.3879 32 88.8008 24.855 88.8008 16C88.8008 7.14503 96.3879 0 105.791 0C115.129 0 122.781 7.14503 122.781 16Z" fill="#17964A"/>
<path d="M103.846 8.54961L104.3 8.06105H100.344C99.8256 8.06105 99.3069 8.30533 98.9826 8.67174L94.7676 13.2519H99.5662L103.846 8.54961ZM101.252 13.1908H110.266L107.802 10.5038L105.727 8.24427L102.614 11.6641L101.252 13.1908ZM94.8324 14.5343L103.781 23.3893L99.5014 14.5343H94.8324ZM110.59 14.5343H109.812H106.505H100.993L105.727 24.3664V24.4275L110.266 15.0229L110.59 14.5343ZM107.802 23.3893L116.751 14.5343H112.082L107.802 23.3893ZM116.751 13.1908L112.536 8.61069C112.211 8.24427 111.693 8 111.174 8H107.218L111.952 13.1298H116.751V13.1908Z" fill="white"/>
</svg>
