<svg width="7" height="12" viewBox="0 0 7 12" fill="none" xmlns="http://www.w3.org/2000/svg">
<path d="M6.51925 5.51471L1.44019 0.435751C1.32272 0.318186 1.1659 0.253418 0.998692 0.253418C0.831484 0.253418 0.674669 0.318186 0.557196 0.435751L0.183159 0.809695C-0.0602298 1.05336 -0.0602298 1.44939 0.183159 1.69269L4.44817 5.9577L0.178427 10.2274C0.0609541 10.345 -0.00390625 10.5017 -0.00390625 10.6688C-0.00390625 10.8361 0.0609541 10.9929 0.178427 11.1105L0.552464 11.4844C0.670029 11.6019 0.826752 11.6667 0.99396 11.6667C1.16117 11.6667 1.31798 11.6019 1.43546 11.4844L6.51925 6.40077C6.637 6.28283 6.70167 6.12537 6.7013 5.95797C6.70167 5.78993 6.637 5.63256 6.51925 5.51471Z" fill="#8EC6B5"/>
</svg>
